<?xml version="1.0" encoding="utf-8"?>
<svg width="2037px" height="1517px" viewBox="0 0 2037 1517" version="1.1" xmlns:xlink="http://www.w3.org/1999/xlink" xmlns="http://www.w3.org/2000/svg">
  <defs>
    <filter filterUnits="userSpaceOnUse" color-interpolation-filters="sRGB" id="filter_1">
      <feFlood flood-opacity="0" result="BackgroundImageFix" />
      <feColorMatrix in="SourceAlpha" type="matrix" values="0 0 0 0 0 0 0 0 0 0 0 0 0 0 0 0 0 0 127 0" />
      <feOffset dx="6" dy="2" />
      <feGaussianBlur stdDeviation="2" />
      <feColorMatrix type="matrix" values="0 0 0 0 0.39215687 0 0 0 0 0.39215687 0 0 0 0 0.39215687 0 0 0 0.49803922 0" />
      <feBlend mode="normal" in2="BackgroundImageFix" result="effect0_dropShadow" />
      <feBlend mode="normal" in="SourceGraphic" in2="effect0_dropShadow" result="shape" />
    </filter>
    <filter filterUnits="userSpaceOnUse" color-interpolation-filters="sRGB" id="filter_2">
      <feFlood flood-opacity="0" result="BackgroundImageFix" />
      <feColorMatrix in="SourceAlpha" type="matrix" values="0 0 0 0 0 0 0 0 0 0 0 0 0 0 0 0 0 0 127 0" />
      <feOffset dx="3" dy="2" />
      <feGaussianBlur stdDeviation="2" />
      <feColorMatrix type="matrix" values="0 0 0 0 0.39215687 0 0 0 0 0.39215687 0 0 0 0 0.39215687 0 0 0 0.49803922 0" />
      <feBlend mode="normal" in2="BackgroundImageFix" result="effect0_dropShadow" />
      <feBlend mode="normal" in="SourceGraphic" in2="effect0_dropShadow" result="shape" />
    </filter>
  </defs>
  
  <path d="M87.999 0L1937 0Q1939.16 0 1941.32 0.105999Q1943.48 0.211997 1945.63 0.423739Q1947.78 0.635481 1949.91 0.952456Q1952.05 1.26943 1954.17 1.69088Q1956.29 2.11232 1958.38 2.63722Q1960.48 3.16212 1962.55 3.78921Q1964.61 4.4163 1966.65 5.14406Q1968.68 5.87183 1970.68 6.69852Q1972.67 7.52522 1974.63 8.44884Q1976.58 9.37247 1978.48 10.3908Q1980.39 11.4091 1982.24 12.5197Q1984.09 13.6303 1985.89 14.8305Q1987.69 16.0307 1989.42 17.3175Q1991.16 18.6044 1992.83 19.9749Q1994.5 21.3453 1996.1 22.796Q1997.7 24.2468 1999.23 25.7743Q2000.75 27.3018 2002.2 28.9025Q2003.65 30.5031 2005.03 32.173Q2006.4 33.8429 2007.68 35.5781Q2008.97 37.3132 2010.17 39.1094Q2011.37 40.9056 2012.48 42.7585Q2013.59 44.6114 2014.61 46.5166Q2015.63 48.4217 2016.55 50.3746Q2017.47 52.3274 2018.3 54.3232Q2019.13 56.319 2019.86 58.353Q2020.58 60.387 2021.21 62.4542Q2021.84 64.5215 2022.36 66.617Q2022.89 68.7125 2023.31 70.8312Q2023.73 72.95 2024.05 75.0869Q2024.36 77.2237 2024.58 79.3736Q2024.79 81.5234 2024.89 83.6811Q2025 85.8387 2025 87.999L2025 1417Q2025 1419.16 2024.89 1421.32Q2024.79 1423.48 2024.58 1425.63Q2024.36 1427.78 2024.05 1429.91Q2023.73 1432.05 2023.31 1434.17Q2022.89 1436.29 2022.36 1438.38Q2021.84 1440.48 2021.21 1442.55Q2020.58 1444.61 2019.86 1446.65Q2019.13 1448.68 2018.3 1450.68Q2017.47 1452.67 2016.55 1454.63Q2015.63 1456.58 2014.61 1458.48Q2013.59 1460.39 2012.48 1462.24Q2011.37 1464.09 2010.17 1465.89Q2008.97 1467.69 2007.68 1469.42Q2006.4 1471.16 2005.03 1472.83Q2003.65 1474.5 2002.2 1476.1Q2000.75 1477.7 1999.23 1479.23Q1997.7 1480.75 1996.1 1482.2Q1994.5 1483.65 1992.83 1485.03Q1991.16 1486.4 1989.42 1487.68Q1987.69 1488.97 1985.89 1490.17Q1984.09 1491.37 1982.24 1492.48Q1980.39 1493.59 1978.48 1494.61Q1976.58 1495.63 1974.63 1496.55Q1972.67 1497.47 1970.68 1498.3Q1968.68 1499.13 1966.65 1499.86Q1964.61 1500.58 1962.55 1501.21Q1960.48 1501.84 1958.38 1502.36Q1956.29 1502.89 1954.17 1503.31Q1952.05 1503.73 1949.91 1504.05Q1947.78 1504.36 1945.63 1504.58Q1943.48 1504.79 1941.32 1504.89Q1939.16 1505 1937 1505L87.999 1505Q85.8387 1505 83.6811 1504.89Q81.5234 1504.79 79.3736 1504.58Q77.2237 1504.36 75.0869 1504.05Q72.95 1503.73 70.8312 1503.31Q68.7125 1502.89 66.617 1502.36Q64.5215 1501.84 62.4542 1501.21Q60.387 1500.58 58.353 1499.86Q56.319 1499.13 54.3232 1498.3Q52.3274 1497.47 50.3746 1496.55Q48.4217 1495.63 46.5166 1494.61Q44.6114 1493.59 42.7585 1492.48Q40.9056 1491.37 39.1094 1490.17Q37.3132 1488.97 35.5781 1487.68Q33.8429 1486.4 32.173 1485.03Q30.5031 1483.65 28.9025 1482.2Q27.3018 1480.75 25.7743 1479.23Q24.2468 1477.7 22.796 1476.1Q21.3453 1474.5 19.9749 1472.83Q18.6044 1471.16 17.3175 1469.42Q16.0307 1467.69 14.8305 1465.89Q13.6303 1464.09 12.5197 1462.24Q11.4091 1460.39 10.3908 1458.48Q9.37247 1456.58 8.44884 1454.63Q7.52522 1452.67 6.69852 1450.68Q5.87183 1448.68 5.14406 1446.65Q4.4163 1444.61 3.78921 1442.55Q3.16212 1440.48 2.63722 1438.38Q2.11232 1436.29 1.69088 1434.17Q1.26943 1432.05 0.952456 1429.91Q0.635481 1427.78 0.423739 1425.63Q0.211997 1423.48 0.105999 1421.32Q0 1419.16 0 1417L0 87.999Q0 85.8387 0.105999 83.6811Q0.211997 81.5234 0.423739 79.3736Q0.635481 77.2237 0.952456 75.0869Q1.26943 72.95 1.69088 70.8312Q2.11232 68.7125 2.63722 66.617Q3.16212 64.5215 3.78921 62.4542Q4.4163 60.387 5.14406 58.353Q5.87183 56.319 6.69852 54.3232Q7.52522 52.3274 8.44884 50.3746Q9.37247 48.4217 10.3908 46.5166Q11.4091 44.6114 12.5197 42.7585Q13.6303 40.9056 14.8305 39.1094Q16.0307 37.3132 17.3175 35.5781Q18.6044 33.8429 19.9749 32.173Q21.3453 30.5031 22.796 28.9025Q24.2468 27.3018 25.7743 25.7743Q27.3018 24.2468 28.9025 22.796Q30.5031 21.3453 32.173 19.9749Q33.8429 18.6044 35.5781 17.3175Q37.3132 16.0307 39.1094 14.8305Q40.9056 13.6303 42.7585 12.5197Q44.6114 11.4091 46.5166 10.3908Q48.4217 9.37247 50.3746 8.44884Q52.3274 7.52522 54.3232 6.69852Q56.319 5.87183 58.353 5.14406Q60.387 4.4163 62.4542 3.78921Q64.5215 3.16212 66.617 2.63722Q68.7125 2.11232 70.8312 1.69088Q72.95 1.26943 75.0869 0.952456Q77.2237 0.635481 79.3736 0.423739Q81.5234 0.211997 83.6811 0.105999Q85.8387 0 87.999 0L87.999 0Z" transform="translate(0 4)" id="Rectangle-3" fill="#333333" fill-rule="evenodd" stroke="none" filter="url(#filter_1)" />
  <g id="Group-2" transform="translate(178 347)">
    <g id="Group">
      <path d="M35.999 0L36.001 0Q36.8847 0 37.7674 0.0433624Q38.65 0.0867247 39.5295 0.173345Q40.409 0.259965 41.2831 0.389635Q42.1573 0.519304 43.0241 0.691711Q43.8908 0.864117 44.748 1.07884Q45.6053 1.29357 46.451 1.5501Q47.2966 1.80664 48.1287 2.10436Q48.9608 2.40207 49.7772 2.74026Q50.5937 3.07845 51.3925 3.45629Q52.1914 3.83413 52.9708 4.25072Q53.7502 4.6673 54.5082 5.12163Q55.2662 5.57595 56.001 6.06692Q56.7358 6.5579 57.4456 7.08433Q58.1554 7.61077 58.8385 8.1714Q59.5216 8.73203 60.1764 9.3255Q60.8312 9.91897 61.4561 10.5439Q62.081 11.1688 62.6745 11.8235Q63.268 12.4783 63.8286 13.1615Q64.3892 13.8446 64.9156 14.5544Q65.4421 15.2642 65.9331 15.999Q66.424 16.7338 66.8783 17.4918Q67.3327 18.2498 67.7493 19.0292Q68.1659 19.8086 68.5437 20.6074Q68.9215 21.4063 69.2597 22.2228Q69.5979 23.0392 69.8956 23.8713Q70.1934 24.7034 70.4499 25.549Q70.7064 26.3947 70.9211 27.252Q71.1359 28.1092 71.3083 28.9759Q71.4807 29.8427 71.6104 30.7168Q71.74 31.591 71.8267 32.4705Q71.9133 33.3499 71.9566 34.2326Q72 35.1153 72 35.999L72 782.001Q72 782.885 71.9566 783.767Q71.9133 784.65 71.8267 785.529Q71.74 786.409 71.6104 787.283Q71.4807 788.157 71.3083 789.024Q71.1359 789.891 70.9211 790.748Q70.7064 791.605 70.4499 792.451Q70.1934 793.297 69.8956 794.129Q69.5979 794.961 69.2597 795.777Q68.9215 796.594 68.5437 797.393Q68.1659 798.191 67.7493 798.971Q67.3327 799.75 66.8783 800.508Q66.424 801.266 65.9331 802.001Q65.4421 802.736 64.9156 803.445Q64.3892 804.155 63.8286 804.838Q63.268 805.522 62.6745 806.176Q62.081 806.831 61.4561 807.456Q60.8312 808.081 60.1764 808.674Q59.5216 809.268 58.8385 809.829Q58.1554 810.389 57.4456 810.916Q56.7358 811.442 56.001 811.933Q55.2662 812.424 54.5082 812.878Q53.7502 813.333 52.9708 813.749Q52.1914 814.166 51.3926 814.544Q50.5937 814.921 49.7772 815.26Q48.9608 815.598 48.1287 815.896Q47.2966 816.193 46.451 816.45Q45.6053 816.706 44.748 816.921Q43.8908 817.136 43.0241 817.308Q42.1573 817.481 41.2831 817.61Q40.409 817.74 39.5295 817.827Q38.65 817.913 37.7674 817.957Q36.8847 818 36.001 818L35.999 818Q35.1153 818 34.2326 817.957Q33.3499 817.913 32.4705 817.827Q31.591 817.74 30.7168 817.61Q29.8427 817.481 28.9759 817.308Q28.1092 817.136 27.252 816.921Q26.3947 816.706 25.549 816.45Q24.7034 816.193 23.8713 815.896Q23.0392 815.598 22.2228 815.26Q21.4063 814.921 20.6074 814.544Q19.8086 814.166 19.0292 813.749Q18.2498 813.333 17.4918 812.878Q16.7338 812.424 15.999 811.933Q15.2642 811.442 14.5544 810.916Q13.8446 810.389 13.1615 809.829Q12.4783 809.268 11.8235 808.674Q11.1688 808.081 10.5439 807.456Q9.91897 806.831 9.3255 806.176Q8.73203 805.522 8.1714 804.838Q7.61077 804.155 7.08433 803.445Q6.5579 802.736 6.06693 802.001Q5.57595 801.266 5.12163 800.508Q4.6673 799.75 4.25072 798.971Q3.83413 798.191 3.45629 797.393Q3.07845 796.594 2.74026 795.777Q2.40207 794.961 2.10436 794.129Q1.80664 793.297 1.5501 792.451Q1.29357 791.605 1.07884 790.748Q0.864117 789.891 0.691711 789.024Q0.519304 788.157 0.389635 787.283Q0.259965 786.409 0.173345 785.529Q0.0867247 784.65 0.0433624 783.767Q0 782.885 0 782.001L0 35.999Q0 35.1153 0.0433624 34.2326Q0.0867247 33.3499 0.173345 32.4705Q0.259965 31.591 0.389635 30.7168Q0.519304 29.8427 0.691711 28.9759Q0.864117 28.1092 1.07884 27.252Q1.29357 26.3947 1.5501 25.549Q1.80664 24.7034 2.10436 23.8713Q2.40207 23.0392 2.74026 22.2228Q3.07845 21.4063 3.45629 20.6074Q3.83413 19.8086 4.25072 19.0292Q4.6673 18.2498 5.12163 17.4918Q5.57595 16.7338 6.06692 15.999Q6.5579 15.2642 7.08433 14.5544Q7.61077 13.8446 8.1714 13.1615Q8.73203 12.4783 9.3255 11.8235Q9.91897 11.1688 10.5439 10.5439Q11.1688 9.91897 11.8235 9.3255Q12.4783 8.73203 13.1615 8.1714Q13.8446 7.61077 14.5544 7.08433Q15.2642 6.5579 15.999 6.06693Q16.7338 5.57595 17.4918 5.12163Q18.2498 4.6673 19.0292 4.25072Q19.8086 3.83413 20.6074 3.45629Q21.4063 3.07845 22.2228 2.74026Q23.0392 2.40207 23.8713 2.10436Q24.7034 1.80664 25.549 1.5501Q26.3947 1.29357 27.252 1.07884Q28.1092 0.864117 28.9759 0.691711Q29.8427 0.519304 30.7168 0.389635Q31.591 0.259965 32.4705 0.173345Q33.3499 0.0867247 34.2326 0.0433624Q35.1153 0 35.999 0Z" id="Rectangle-2" fill="#48DA99" fill-rule="evenodd" stroke="none" />
    </g>
    <path d="M35.999 0L36.001 0Q36.8847 0 37.7674 0.0433624Q38.65 0.0867247 39.5295 0.173345Q40.409 0.259965 41.2831 0.389635Q42.1573 0.519304 43.0241 0.691711Q43.8908 0.864117 44.748 1.07884Q45.6053 1.29357 46.451 1.5501Q47.2966 1.80664 48.1287 2.10436Q48.9608 2.40207 49.7772 2.74026Q50.5937 3.07845 51.3925 3.45629Q52.1914 3.83413 52.9708 4.25072Q53.7502 4.6673 54.5082 5.12163Q55.2662 5.57595 56.001 6.06692Q56.7358 6.5579 57.4456 7.08433Q58.1554 7.61077 58.8385 8.1714Q59.5216 8.73203 60.1764 9.3255Q60.8312 9.91897 61.4561 10.5439Q62.081 11.1688 62.6745 11.8235Q63.268 12.4783 63.8286 13.1615Q64.3892 13.8446 64.9156 14.5544Q65.4421 15.2642 65.9331 15.999Q66.424 16.7338 66.8783 17.4918Q67.3327 18.2498 67.7493 19.0292Q68.1659 19.8086 68.5437 20.6074Q68.9215 21.4063 69.2597 22.2228Q69.5979 23.0392 69.8956 23.8713Q70.1934 24.7034 70.4499 25.549Q70.7064 26.3947 70.9211 27.252Q71.1359 28.1092 71.3083 28.9759Q71.4807 29.8427 71.6104 30.7168Q71.74 31.591 71.8267 32.4705Q71.9133 33.3499 71.9566 34.2326Q72 35.1153 72 35.999L72 515.001Q72 515.885 71.9566 516.767Q71.9133 517.65 71.8267 518.53Q71.74 519.409 71.6104 520.283Q71.4807 521.157 71.3083 522.024Q71.1359 522.891 70.9211 523.748Q70.7064 524.605 70.4499 525.451Q70.1934 526.297 69.8956 527.129Q69.5979 527.961 69.2597 528.777Q68.9215 529.594 68.5437 530.393Q68.1659 531.191 67.7493 531.971Q67.3327 532.75 66.8783 533.508Q66.424 534.266 65.9331 535.001Q65.4421 535.736 64.9156 536.446Q64.3892 537.155 63.8286 537.839Q63.268 538.522 62.6745 539.176Q62.081 539.831 61.4561 540.456Q60.8312 541.081 60.1764 541.674Q59.5216 542.268 58.8385 542.829Q58.1554 543.389 57.4456 543.916Q56.7358 544.442 56.001 544.933Q55.2662 545.424 54.5082 545.878Q53.7502 546.333 52.9708 546.749Q52.1914 547.166 51.3926 547.544Q50.5937 547.921 49.7772 548.26Q48.9608 548.598 48.1287 548.896Q47.2966 549.193 46.451 549.45Q45.6053 549.706 44.748 549.921Q43.8908 550.136 43.0241 550.308Q42.1573 550.481 41.2831 550.61Q40.409 550.74 39.5295 550.827Q38.65 550.913 37.7674 550.957Q36.8847 551 36.001 551L35.999 551Q35.1153 551 34.2326 550.957Q33.3499 550.913 32.4705 550.827Q31.591 550.74 30.7168 550.61Q29.8427 550.481 28.9759 550.308Q28.1092 550.136 27.252 549.921Q26.3947 549.706 25.549 549.45Q24.7034 549.193 23.8713 548.896Q23.0392 548.598 22.2228 548.26Q21.4063 547.921 20.6074 547.544Q19.8086 547.166 19.0292 546.749Q18.2498 546.333 17.4918 545.878Q16.7338 545.424 15.999 544.933Q15.2642 544.442 14.5544 543.916Q13.8446 543.389 13.1615 542.829Q12.4783 542.268 11.8235 541.674Q11.1688 541.081 10.5439 540.456Q9.91897 539.831 9.3255 539.176Q8.73203 538.522 8.1714 537.839Q7.61077 537.155 7.08433 536.446Q6.5579 535.736 6.06693 535.001Q5.57595 534.266 5.12163 533.508Q4.6673 532.75 4.25072 531.971Q3.83413 531.191 3.45629 530.392Q3.07845 529.594 2.74026 528.777Q2.40207 527.961 2.10436 527.129Q1.80664 526.297 1.5501 525.451Q1.29357 524.605 1.07884 523.748Q0.864117 522.891 0.691711 522.024Q0.519304 521.157 0.389635 520.283Q0.259965 519.409 0.173345 518.53Q0.0867247 517.65 0.0433624 516.767Q0 515.885 0 515.001L0 35.999Q0 35.1153 0.0433624 34.2326Q0.0867247 33.3499 0.173345 32.4705Q0.259965 31.591 0.389635 30.7168Q0.519304 29.8427 0.691711 28.9759Q0.864117 28.1092 1.07884 27.252Q1.29357 26.3947 1.5501 25.549Q1.80664 24.7034 2.10436 23.8713Q2.40207 23.0392 2.74026 22.2228Q3.07845 21.4063 3.45629 20.6074Q3.83413 19.8086 4.25072 19.0292Q4.6673 18.2498 5.12163 17.4918Q5.57595 16.7338 6.06692 15.999Q6.5579 15.2642 7.08433 14.5544Q7.61077 13.8446 8.1714 13.1615Q8.73203 12.4783 9.3255 11.8235Q9.91897 11.1688 10.5439 10.5439Q11.1688 9.91897 11.8235 9.3255Q12.4783 8.73203 13.1615 8.1714Q13.8446 7.61077 14.5544 7.08433Q15.2642 6.5579 15.999 6.06693Q16.7338 5.57595 17.4918 5.12163Q18.2498 4.6673 19.0292 4.25072Q19.8086 3.83413 20.6074 3.45629Q21.4063 3.07845 22.2228 2.74026Q23.0392 2.40207 23.8713 2.10436Q24.7034 1.80664 25.549 1.5501Q26.3947 1.29357 27.252 1.07884Q28.1092 0.864117 28.9759 0.691711Q29.8427 0.519304 30.7168 0.389635Q31.591 0.259965 32.4705 0.173345Q33.3499 0.0867247 34.2326 0.0433624Q35.1153 0 35.999 0Z" transform="translate(128 0)" id="Rectangle-2-Copy" fill="#48DA99" fill-rule="evenodd" stroke="none" />
    <path d="M35.999 0L36.001 0Q36.8847 0 37.7674 0.0433624Q38.65 0.0867247 39.5295 0.173345Q40.409 0.259965 41.2831 0.389635Q42.1573 0.519304 43.0241 0.691711Q43.8908 0.864117 44.748 1.07884Q45.6053 1.29357 46.451 1.5501Q47.2966 1.80664 48.1287 2.10436Q48.9608 2.40207 49.7772 2.74026Q50.5937 3.07845 51.3925 3.45629Q52.1914 3.83413 52.9708 4.25072Q53.7502 4.6673 54.5082 5.12163Q55.2662 5.57595 56.001 6.06692Q56.7358 6.5579 57.4456 7.08433Q58.1554 7.61077 58.8385 8.1714Q59.5216 8.73203 60.1764 9.3255Q60.8312 9.91897 61.4561 10.5439Q62.081 11.1688 62.6745 11.8235Q63.268 12.4783 63.8286 13.1615Q64.3892 13.8446 64.9156 14.5544Q65.4421 15.2642 65.9331 15.999Q66.424 16.7338 66.8783 17.4918Q67.3327 18.2498 67.7493 19.0292Q68.1659 19.8086 68.5437 20.6074Q68.9215 21.4063 69.2597 22.2228Q69.5979 23.0392 69.8956 23.8713Q70.1934 24.7034 70.4499 25.549Q70.7064 26.3947 70.9211 27.252Q71.1359 28.1092 71.3083 28.9759Q71.4807 29.8427 71.6104 30.7168Q71.74 31.591 71.8267 32.4705Q71.9133 33.3499 71.9566 34.2326Q72 35.1153 72 35.999L72 412.001Q72 412.885 71.9566 413.767Q71.9133 414.65 71.8267 415.53Q71.74 416.409 71.6104 417.283Q71.4807 418.157 71.3083 419.024Q71.1359 419.891 70.9211 420.748Q70.7064 421.605 70.4499 422.451Q70.1934 423.297 69.8956 424.129Q69.5979 424.961 69.2597 425.777Q68.9215 426.594 68.5437 427.393Q68.1659 428.191 67.7493 428.971Q67.3327 429.75 66.8783 430.508Q66.424 431.266 65.9331 432.001Q65.4421 432.736 64.9156 433.446Q64.3892 434.155 63.8286 434.839Q63.268 435.522 62.6745 436.176Q62.081 436.831 61.4561 437.456Q60.8312 438.081 60.1764 438.674Q59.5216 439.268 58.8385 439.829Q58.1554 440.389 57.4456 440.916Q56.7358 441.442 56.001 441.933Q55.2662 442.424 54.5082 442.878Q53.7502 443.333 52.9708 443.749Q52.1914 444.166 51.3926 444.544Q50.5937 444.922 49.7772 445.26Q48.9608 445.598 48.1287 445.896Q47.2966 446.193 46.451 446.45Q45.6053 446.706 44.748 446.921Q43.8908 447.136 43.0241 447.308Q42.1573 447.481 41.2831 447.61Q40.409 447.74 39.5295 447.827Q38.65 447.913 37.7674 447.957Q36.8847 448 36.001 448L35.999 448Q35.1153 448 34.2326 447.957Q33.3499 447.913 32.4705 447.827Q31.591 447.74 30.7168 447.61Q29.8427 447.481 28.9759 447.308Q28.1092 447.136 27.252 446.921Q26.3947 446.706 25.549 446.45Q24.7034 446.193 23.8713 445.896Q23.0392 445.598 22.2228 445.26Q21.4063 444.922 20.6074 444.544Q19.8086 444.166 19.0292 443.749Q18.2498 443.333 17.4918 442.878Q16.7338 442.424 15.999 441.933Q15.2642 441.442 14.5544 440.916Q13.8446 440.389 13.1615 439.829Q12.4783 439.268 11.8235 438.674Q11.1688 438.081 10.5439 437.456Q9.91897 436.831 9.3255 436.176Q8.73203 435.522 8.1714 434.839Q7.61077 434.155 7.08433 433.446Q6.5579 432.736 6.06693 432.001Q5.57595 431.266 5.12163 430.508Q4.6673 429.75 4.25072 428.971Q3.83413 428.191 3.45629 427.393Q3.07845 426.594 2.74026 425.777Q2.40207 424.961 2.10436 424.129Q1.80664 423.297 1.5501 422.451Q1.29357 421.605 1.07884 420.748Q0.864117 419.891 0.691711 419.024Q0.519304 418.157 0.389635 417.283Q0.259965 416.409 0.173345 415.53Q0.0867247 414.65 0.0433624 413.767Q0 412.885 0 412.001L0 35.999Q0 35.1153 0.0433624 34.2326Q0.0867247 33.3499 0.173345 32.4705Q0.259965 31.591 0.389635 30.7168Q0.519304 29.8427 0.691711 28.9759Q0.864117 28.1092 1.07884 27.252Q1.29357 26.3947 1.5501 25.549Q1.80664 24.7034 2.10436 23.8713Q2.40207 23.0392 2.74026 22.2228Q3.07845 21.4063 3.45629 20.6074Q3.83413 19.8086 4.25072 19.0292Q4.6673 18.2498 5.12163 17.4918Q5.57595 16.7338 6.06692 15.999Q6.5579 15.2642 7.08433 14.5544Q7.61077 13.8446 8.1714 13.1615Q8.73203 12.4783 9.3255 11.8235Q9.91897 11.1688 10.5439 10.5439Q11.1688 9.91897 11.8235 9.3255Q12.4783 8.73203 13.1615 8.1714Q13.8446 7.61077 14.5544 7.08433Q15.2642 6.5579 15.999 6.06693Q16.7338 5.57595 17.4918 5.12163Q18.2498 4.6673 19.0292 4.25072Q19.8086 3.83413 20.6074 3.45629Q21.4063 3.07845 22.2228 2.74026Q23.0392 2.40207 23.8713 2.10436Q24.7034 1.80664 25.549 1.5501Q26.3947 1.29357 27.252 1.07884Q28.1092 0.864117 28.9759 0.691711Q29.8427 0.519304 30.7168 0.389635Q31.591 0.259965 32.4705 0.173345Q33.3499 0.0867247 34.2326 0.0433624Q35.1153 0 35.999 0Z" transform="translate(269 0)" id="Rectangle-2-Copy-2" fill="#48DA99" fill-rule="evenodd" stroke="none" />
  </g>
  <g id="Group-2-Copy" transform="matrix(1.1483816E-06 -1 1 1.1483816E-06 933.4995 1451.9995)">
    <g id="Group" transform="translate(0 0.00012207031)">
      <path d="M18.0518 0L18.0538 0Q18.4969 0 18.9395 0.0217442Q19.3822 0.0434883 19.8232 0.0869243Q20.2642 0.13036 20.7025 0.195383Q21.1409 0.260406 21.5755 0.34686Q22.0101 0.433313 22.44 0.540989Q22.8699 0.648665 23.2939 0.777304Q23.718 0.905942 24.1352 1.05523Q24.5525 1.20453 24.9619 1.37411Q25.3713 1.54369 25.7719 1.73316Q26.1725 1.92263 26.5633 2.13153Q26.9542 2.34043 27.3343 2.56825Q27.7144 2.79608 28.0828 3.04227Q28.4513 3.28847 28.8072 3.55245Q29.1632 3.81644 29.5057 4.09757Q29.8483 4.3787 30.1766 4.67629Q30.505 4.97389 30.8183 5.28725Q31.1317 5.6006 31.4293 5.92895Q31.7269 6.2573 32.008 6.59985Q32.2891 6.94241 32.5531 7.29835Q32.8171 7.65429 33.0633 8.02275Q33.3095 8.39121 33.5373 8.77131Q33.7651 9.15141 33.974 9.54223Q34.1829 9.93305 34.3724 10.3337Q34.5619 10.7343 34.7315 11.1437Q34.901 11.5531 35.0503 11.9703Q35.1996 12.3876 35.3283 12.8116Q35.4569 13.2357 35.5646 13.6656Q35.6723 14.0954 35.7587 14.5301Q35.8452 14.9647 35.9102 15.403Q35.9752 15.8414 36.0187 16.2824Q36.0621 16.7234 36.0838 17.166Q36.1056 17.6086 36.1056 18.0518L36.1056 392.148Q36.1056 392.591 36.0838 393.033Q36.0621 393.476 36.0187 393.917Q35.9752 394.358 35.9102 394.796Q35.8452 395.235 35.7587 395.669Q35.6723 396.104 35.5646 396.534Q35.4569 396.964 35.3283 397.388Q35.1996 397.812 35.0503 398.229Q34.901 398.646 34.7315 399.056Q34.5619 399.465 34.3724 399.866Q34.1829 400.266 33.974 400.657Q33.7651 401.048 33.5373 401.428Q33.3095 401.808 33.0633 402.177Q32.8171 402.545 32.5531 402.901Q32.2891 403.257 32.008 403.599Q31.7269 403.942 31.4293 404.27Q31.1317 404.599 30.8183 404.912Q30.505 405.225 30.1766 405.523Q29.8483 405.821 29.5057 406.102Q29.1632 406.383 28.8072 406.647Q28.4513 406.911 28.0828 407.157Q27.7144 407.403 27.3343 407.631Q26.9542 407.859 26.5633 408.068Q26.1725 408.277 25.7719 408.466Q25.3713 408.656 24.9619 408.825Q24.5525 408.995 24.1352 409.144Q23.718 409.293 23.2939 409.422Q22.8699 409.551 22.44 409.658Q22.0101 409.766 21.5755 409.852Q21.1409 409.939 20.7025 410.004Q20.2642 410.069 19.8232 410.112Q19.3822 410.156 18.9395 410.178Q18.4969 410.199 18.0538 410.199L18.0518 410.199Q17.6086 410.199 17.166 410.178Q16.7234 410.156 16.2824 410.112Q15.8414 410.069 15.403 410.004Q14.9647 409.939 14.5301 409.852Q14.0954 409.766 13.6656 409.658Q13.2357 409.551 12.8116 409.422Q12.3876 409.293 11.9703 409.144Q11.5531 408.995 11.1437 408.825Q10.7343 408.656 10.3337 408.466Q9.93305 408.277 9.54223 408.068Q9.15141 407.859 8.77131 407.631Q8.39121 407.403 8.02275 407.157Q7.65429 406.911 7.29835 406.647Q6.94241 406.383 6.59985 406.102Q6.2573 405.821 5.92895 405.523Q5.6006 405.225 5.28725 404.912Q4.97389 404.599 4.67629 404.27Q4.3787 403.942 4.09757 403.599Q3.81644 403.257 3.55246 402.901Q3.28847 402.545 3.04227 402.177Q2.79608 401.808 2.56825 401.428Q2.34043 401.048 2.13153 400.657Q1.92263 400.266 1.73316 399.866Q1.54369 399.465 1.37411 399.056Q1.20453 398.646 1.05523 398.229Q0.905942 397.812 0.777304 397.388Q0.648665 396.964 0.540989 396.534Q0.433313 396.104 0.34686 395.669Q0.260406 395.235 0.195383 394.796Q0.13036 394.358 0.0869243 393.917Q0.0434883 393.476 0.0217442 393.033Q0 392.591 0 392.148L0 18.0518Q0 17.6086 0.0217442 17.166Q0.0434883 16.7234 0.0869243 16.2824Q0.13036 15.8414 0.195383 15.403Q0.260406 14.9647 0.34686 14.5301Q0.433313 14.0954 0.540989 13.6656Q0.648665 13.2357 0.777304 12.8116Q0.905942 12.3876 1.05523 11.9703Q1.20453 11.5531 1.37411 11.1437Q1.54369 10.7343 1.73316 10.3337Q1.92263 9.93305 2.13153 9.54223Q2.34043 9.15141 2.56825 8.77131Q2.79608 8.39121 3.04227 8.02275Q3.28847 7.65429 3.55245 7.29835Q3.81644 6.94241 4.09757 6.59985Q4.3787 6.2573 4.67629 5.92895Q4.97389 5.6006 5.28725 5.28725Q5.6006 4.97389 5.92895 4.67629Q6.2573 4.3787 6.59985 4.09757Q6.94241 3.81644 7.29835 3.55246Q7.65429 3.28847 8.02275 3.04227Q8.39121 2.79608 8.77131 2.56825Q9.15141 2.34043 9.54223 2.13153Q9.93305 1.92263 10.3337 1.73316Q10.7343 1.54369 11.1437 1.37411Q11.5531 1.20453 11.9703 1.05523Q12.3876 0.905942 12.8116 0.777304Q13.2357 0.648665 13.6656 0.540989Q14.0954 0.433313 14.5301 0.34686Q14.9647 0.260406 15.403 0.195383Q15.8414 0.13036 16.2824 0.0869243Q16.7234 0.0434883 17.166 0.0217442Q17.6086 0 18.0518 0Z" id="Rectangle-2" fill="#48DA99" fill-rule="evenodd" stroke="none" />
    </g>
    <path d="M18.0518 0L18.0538 0Q18.4969 0 18.9395 0.0217442Q19.3822 0.0434883 19.8232 0.0869243Q20.2642 0.13036 20.7025 0.195383Q21.1409 0.260406 21.5755 0.34686Q22.0101 0.433314 22.44 0.540989Q22.8699 0.648665 23.2939 0.777304Q23.718 0.905943 24.1352 1.05523Q24.5525 1.20453 24.9619 1.37411Q25.3713 1.5437 25.7719 1.73317Q26.1725 1.92263 26.5633 2.13153Q26.9542 2.34043 27.3343 2.56825Q27.7144 2.79608 28.0828 3.04227Q28.4513 3.28847 28.8072 3.55246Q29.1632 3.81644 29.5057 4.09757Q29.8483 4.3787 30.1766 4.6763Q30.505 4.97389 30.8183 5.28725Q31.1317 5.6006 31.4293 5.92895Q31.7269 6.2573 32.008 6.59986Q32.2891 6.94241 32.5531 7.29835Q32.8171 7.65429 33.0633 8.02275Q33.3095 8.39121 33.5373 8.77131Q33.7651 9.15141 33.974 9.54223Q34.1829 9.93305 34.3724 10.3337Q34.5619 10.7343 34.7315 11.1437Q34.901 11.5531 35.0503 11.9703Q35.1996 12.3876 35.3283 12.8116Q35.4569 13.2357 35.5646 13.6656Q35.6723 14.0954 35.7587 14.5301Q35.8452 14.9647 35.9102 15.403Q35.9752 15.8414 36.0187 16.2824Q36.0621 16.7234 36.0838 17.166Q36.1056 17.6086 36.1056 18.0518L36.1056 258.256Q36.1056 258.699 36.0838 259.142Q36.0621 259.584 36.0187 260.025Q35.9752 260.466 35.9102 260.905Q35.8452 261.343 35.7587 261.778Q35.6723 262.212 35.5646 262.642Q35.4569 263.072 35.3283 263.496Q35.1996 263.92 35.0503 264.338Q34.901 264.755 34.7315 265.164Q34.5619 265.574 34.3724 265.974Q34.1829 266.375 33.974 266.766Q33.7651 267.156 33.5373 267.537Q33.3095 267.917 33.0633 268.285Q32.8171 268.654 32.5531 269.01Q32.2891 269.365 32.008 269.708Q31.7269 270.051 31.4293 270.379Q31.1317 270.707 30.8183 271.021Q30.505 271.334 30.1766 271.632Q29.8483 271.929 29.5057 272.21Q29.1632 272.491 28.8072 272.755Q28.4513 273.019 28.0828 273.266Q27.7144 273.512 27.3343 273.74Q26.9542 273.967 26.5633 274.176Q26.1725 274.385 25.7719 274.575Q25.3713 274.764 24.9619 274.934Q24.5525 275.103 24.1352 275.253Q23.718 275.402 23.2939 275.531Q22.8699 275.659 22.44 275.767Q22.0101 275.875 21.5755 275.961Q21.1409 276.047 20.7025 276.112Q20.2642 276.178 19.8232 276.221Q19.3822 276.264 18.9395 276.286Q18.4969 276.308 18.0538 276.308L18.0518 276.308Q17.6086 276.308 17.166 276.286Q16.7234 276.264 16.2824 276.221Q15.8414 276.178 15.403 276.113Q14.9647 276.047 14.5301 275.961Q14.0954 275.875 13.6656 275.767Q13.2357 275.659 12.8116 275.531Q12.3876 275.402 11.9703 275.253Q11.5531 275.103 11.1437 274.934Q10.7343 274.764 10.3337 274.575Q9.93305 274.385 9.54223 274.176Q9.15141 273.967 8.77131 273.74Q8.39121 273.512 8.02275 273.266Q7.65429 273.019 7.29835 272.755Q6.94241 272.491 6.59986 272.21Q6.2573 271.929 5.92895 271.632Q5.6006 271.334 5.28725 271.021Q4.97389 270.707 4.6763 270.379Q4.3787 270.051 4.09757 269.708Q3.81644 269.365 3.55246 269.009Q3.28847 268.654 3.04227 268.285Q2.79608 267.917 2.56825 267.537Q2.34043 267.156 2.13153 266.766Q1.92263 266.375 1.73316 265.974Q1.5437 265.574 1.37411 265.164Q1.20453 264.755 1.05523 264.338Q0.905943 263.92 0.777304 263.496Q0.648665 263.072 0.540989 262.642Q0.433314 262.212 0.34686 261.778Q0.260406 261.343 0.195383 260.905Q0.13036 260.466 0.0869243 260.025Q0.0434883 259.584 0.0217442 259.142Q0 258.699 0 258.256L0 18.0518Q0 17.6086 0.0217442 17.166Q0.0434883 16.7234 0.0869243 16.2824Q0.13036 15.8414 0.195383 15.403Q0.260406 14.9647 0.34686 14.5301Q0.433314 14.0954 0.540989 13.6656Q0.648665 13.2357 0.777304 12.8116Q0.905943 12.3876 1.05523 11.9703Q1.20453 11.5531 1.37411 11.1437Q1.5437 10.7343 1.73317 10.3337Q1.92263 9.93305 2.13153 9.54223Q2.34043 9.15141 2.56825 8.77131Q2.79608 8.39121 3.04227 8.02275Q3.28847 7.65429 3.55246 7.29835Q3.81644 6.94241 4.09757 6.59986Q4.3787 6.2573 4.6763 5.92895Q4.97389 5.6006 5.28725 5.28725Q5.6006 4.97389 5.92895 4.6763Q6.2573 4.3787 6.59986 4.09757Q6.94241 3.81644 7.29835 3.55246Q7.65429 3.28847 8.02275 3.04227Q8.39121 2.79608 8.77131 2.56825Q9.15141 2.34043 9.54223 2.13153Q9.93305 1.92263 10.3337 1.73316Q10.7343 1.5437 11.1437 1.37411Q11.5531 1.20453 11.9703 1.05523Q12.3876 0.905943 12.8116 0.777304Q13.2357 0.648665 13.6656 0.540989Q14.0954 0.433314 14.5301 0.34686Q14.9647 0.260406 15.403 0.195383Q15.8414 0.13036 16.2824 0.0869243Q16.7234 0.0434883 17.166 0.0217442Q17.6086 0 18.0518 0Z" transform="translate(64.187744 0.0034179688)" id="Rectangle-2-Copy" fill="#48DA99" fill-rule="evenodd" stroke="none" />
    <path d="M18.0518 0L18.0538 0Q18.4969 0 18.9395 0.0217442Q19.3822 0.0434883 19.8232 0.0869243Q20.2642 0.13036 20.7025 0.195383Q21.1409 0.260406 21.5755 0.34686Q22.0101 0.433314 22.44 0.540989Q22.8699 0.648665 23.2939 0.777304Q23.718 0.905943 24.1352 1.05523Q24.5525 1.20453 24.9619 1.37411Q25.3713 1.5437 25.7719 1.73317Q26.1725 1.92263 26.5633 2.13153Q26.9542 2.34043 27.3343 2.56825Q27.7144 2.79608 28.0828 3.04227Q28.4513 3.28847 28.8072 3.55246Q29.1632 3.81644 29.5057 4.09757Q29.8483 4.3787 30.1766 4.6763Q30.505 4.97389 30.8183 5.28725Q31.1317 5.6006 31.4293 5.92895Q31.7269 6.2573 32.008 6.59986Q32.2891 6.94241 32.5531 7.29835Q32.8171 7.65429 33.0633 8.02275Q33.3095 8.39121 33.5373 8.77131Q33.7651 9.15141 33.974 9.54223Q34.1829 9.93305 34.3724 10.3337Q34.5619 10.7343 34.7315 11.1437Q34.901 11.5531 35.0503 11.9703Q35.1996 12.3876 35.3283 12.8116Q35.4569 13.2357 35.5646 13.6656Q35.6723 14.0954 35.7587 14.5301Q35.8452 14.9647 35.9102 15.403Q35.9752 15.8414 36.0187 16.2824Q36.0621 16.7234 36.0838 17.166Q36.1056 17.6086 36.1056 18.0518L36.1056 206.605Q36.1056 207.048 36.0838 207.491Q36.0621 207.933 36.0187 208.374Q35.9752 208.815 35.9102 209.254Q35.8452 209.692 35.7587 210.127Q35.6723 210.561 35.5646 210.991Q35.4569 211.421 35.3283 211.845Q35.1996 212.269 35.0503 212.687Q34.901 213.104 34.7315 213.513Q34.5619 213.923 34.3724 214.323Q34.1829 214.724 33.974 215.115Q33.7651 215.505 33.5373 215.886Q33.3095 216.266 33.0633 216.634Q32.8171 217.003 32.5531 217.359Q32.2891 217.714 32.008 218.057Q31.7269 218.4 31.4293 218.728Q31.1317 219.056 30.8183 219.37Q30.505 219.683 30.1766 219.981Q29.8483 220.278 29.5057 220.559Q29.1632 220.84 28.8072 221.104Q28.4513 221.368 28.0828 221.615Q27.7144 221.861 27.3343 222.089Q26.9542 222.316 26.5633 222.525Q26.1725 222.734 25.7719 222.924Q25.3713 223.113 24.9619 223.283Q24.5525 223.452 24.1352 223.602Q23.718 223.751 23.2939 223.88Q22.8699 224.008 22.44 224.116Q22.0101 224.224 21.5755 224.31Q21.1409 224.396 20.7025 224.461Q20.2642 224.526 19.8232 224.57Q19.3822 224.613 18.9395 224.635Q18.4969 224.657 18.0538 224.657L18.0518 224.657Q17.6086 224.657 17.166 224.635Q16.7234 224.613 16.2824 224.57Q15.8414 224.526 15.403 224.461Q14.9647 224.396 14.5301 224.31Q14.0954 224.224 13.6656 224.116Q13.2357 224.008 12.8116 223.88Q12.3876 223.751 11.9703 223.602Q11.5531 223.452 11.1437 223.283Q10.7343 223.113 10.3337 222.924Q9.93305 222.734 9.54223 222.525Q9.15141 222.316 8.77131 222.089Q8.39121 221.861 8.02275 221.615Q7.65429 221.368 7.29835 221.104Q6.94241 220.84 6.59986 220.559Q6.2573 220.278 5.92895 219.981Q5.6006 219.683 5.28725 219.37Q4.97389 219.056 4.6763 218.728Q4.3787 218.4 4.09757 218.057Q3.81644 217.714 3.55246 217.358Q3.28847 217.003 3.04227 216.634Q2.79608 216.266 2.56825 215.886Q2.34043 215.505 2.13153 215.115Q1.92263 214.724 1.73316 214.323Q1.5437 213.923 1.37411 213.513Q1.20453 213.104 1.05523 212.687Q0.905943 212.269 0.777304 211.845Q0.648665 211.421 0.540989 210.991Q0.433314 210.561 0.34686 210.127Q0.260406 209.692 0.195383 209.254Q0.13036 208.815 0.0869243 208.374Q0.0434883 207.933 0.0217442 207.491Q0 207.048 0 206.605L0 18.0518Q0 17.6086 0.0217442 17.166Q0.0434883 16.7234 0.0869243 16.2824Q0.13036 15.8414 0.195383 15.403Q0.260406 14.9647 0.34686 14.5301Q0.433314 14.0954 0.540989 13.6656Q0.648665 13.2357 0.777304 12.8116Q0.905943 12.3876 1.05523 11.9703Q1.20453 11.5531 1.37411 11.1437Q1.5437 10.7343 1.73317 10.3337Q1.92263 9.93305 2.13153 9.54223Q2.34043 9.15141 2.56825 8.77131Q2.79608 8.39121 3.04227 8.02275Q3.28847 7.65429 3.55246 7.29835Q3.81644 6.94241 4.09757 6.59986Q4.3787 6.2573 4.6763 5.92895Q4.97389 5.6006 5.28725 5.28725Q5.6006 4.97389 5.92895 4.6763Q6.2573 4.3787 6.59986 4.09757Q6.94241 3.81644 7.29835 3.55246Q7.65429 3.28847 8.02275 3.04227Q8.39121 2.79608 8.77131 2.56825Q9.15141 2.34043 9.54223 2.13153Q9.93305 1.92263 10.3337 1.73316Q10.7343 1.5437 11.1437 1.37411Q11.5531 1.20453 11.9703 1.05523Q12.3876 0.905943 12.8116 0.777304Q13.2357 0.648665 13.6656 0.540989Q14.0954 0.433314 14.5301 0.34686Q14.9647 0.260406 15.403 0.195383Q15.8414 0.13036 16.2824 0.0869243Q16.7234 0.0434883 17.166 0.0217442Q17.6086 0 18.0518 0Z" transform="translate(134.89441 0)" id="Rectangle-2-Copy-2" fill="#48DA99" fill-rule="evenodd" stroke="none" />
  </g>
  <g id="Group-2-Copy-2" transform="matrix(1.1483816E-06 -1 1 1.1483816E-06 1459.2992 1452.9995)">
    <g id="Group" transform="translate(0 0.00012207031)">
      <path d="M18.0518 0L18.0538 0Q18.4969 0 18.9395 0.0217442Q19.3822 0.0434883 19.8232 0.0869243Q20.2642 0.13036 20.7025 0.195383Q21.1409 0.260406 21.5755 0.34686Q22.0101 0.433313 22.44 0.540989Q22.8699 0.648665 23.2939 0.777304Q23.718 0.905942 24.1352 1.05523Q24.5525 1.20453 24.9619 1.37411Q25.3713 1.54369 25.7719 1.73316Q26.1725 1.92263 26.5633 2.13153Q26.9542 2.34043 27.3343 2.56825Q27.7144 2.79608 28.0828 3.04227Q28.4513 3.28847 28.8072 3.55245Q29.1632 3.81644 29.5057 4.09757Q29.8483 4.3787 30.1766 4.67629Q30.505 4.97389 30.8183 5.28725Q31.1317 5.6006 31.4293 5.92895Q31.7269 6.2573 32.008 6.59985Q32.2891 6.94241 32.5531 7.29835Q32.8171 7.65429 33.0633 8.02275Q33.3095 8.39121 33.5373 8.77131Q33.7651 9.15141 33.974 9.54223Q34.1829 9.93305 34.3724 10.3337Q34.5619 10.7343 34.7315 11.1437Q34.901 11.5531 35.0503 11.9703Q35.1996 12.3876 35.3283 12.8116Q35.4569 13.2357 35.5646 13.6656Q35.6723 14.0954 35.7587 14.5301Q35.8452 14.9647 35.9102 15.403Q35.9752 15.8414 36.0187 16.2824Q36.0621 16.7234 36.0838 17.166Q36.1056 17.6086 36.1056 18.0518L36.1056 392.148Q36.1056 392.591 36.0838 393.033Q36.0621 393.476 36.0187 393.917Q35.9752 394.358 35.9102 394.796Q35.8452 395.235 35.7587 395.669Q35.6723 396.104 35.5646 396.534Q35.4569 396.964 35.3283 397.388Q35.1996 397.812 35.0503 398.229Q34.901 398.646 34.7315 399.056Q34.5619 399.465 34.3724 399.866Q34.1829 400.266 33.974 400.657Q33.7651 401.048 33.5373 401.428Q33.3095 401.808 33.0633 402.177Q32.8171 402.545 32.5531 402.901Q32.2891 403.257 32.008 403.599Q31.7269 403.942 31.4293 404.27Q31.1317 404.599 30.8183 404.912Q30.505 405.225 30.1766 405.523Q29.8483 405.821 29.5057 406.102Q29.1632 406.383 28.8072 406.647Q28.4513 406.911 28.0828 407.157Q27.7144 407.403 27.3343 407.631Q26.9542 407.859 26.5633 408.068Q26.1725 408.277 25.7719 408.466Q25.3713 408.656 24.9619 408.825Q24.5525 408.995 24.1352 409.144Q23.718 409.293 23.2939 409.422Q22.8699 409.551 22.44 409.658Q22.0101 409.766 21.5755 409.852Q21.1409 409.939 20.7025 410.004Q20.2642 410.069 19.8232 410.112Q19.3822 410.156 18.9395 410.178Q18.4969 410.199 18.0538 410.199L18.0518 410.199Q17.6086 410.199 17.166 410.178Q16.7234 410.156 16.2824 410.112Q15.8414 410.069 15.403 410.004Q14.9647 409.939 14.5301 409.852Q14.0954 409.766 13.6656 409.658Q13.2357 409.551 12.8116 409.422Q12.3876 409.293 11.9703 409.144Q11.5531 408.995 11.1437 408.825Q10.7343 408.656 10.3337 408.466Q9.93305 408.277 9.54223 408.068Q9.15141 407.859 8.77131 407.631Q8.39121 407.403 8.02275 407.157Q7.65429 406.911 7.29835 406.647Q6.94241 406.383 6.59985 406.102Q6.2573 405.821 5.92895 405.523Q5.6006 405.225 5.28725 404.912Q4.97389 404.599 4.67629 404.27Q4.3787 403.942 4.09757 403.599Q3.81644 403.257 3.55246 402.901Q3.28847 402.545 3.04227 402.177Q2.79608 401.808 2.56825 401.428Q2.34043 401.048 2.13153 400.657Q1.92263 400.266 1.73316 399.866Q1.54369 399.465 1.37411 399.056Q1.20453 398.646 1.05523 398.229Q0.905942 397.812 0.777304 397.388Q0.648665 396.964 0.540989 396.534Q0.433313 396.104 0.34686 395.669Q0.260406 395.235 0.195383 394.796Q0.13036 394.358 0.0869243 393.917Q0.0434883 393.476 0.0217442 393.033Q0 392.591 0 392.148L0 18.0518Q0 17.6086 0.0217442 17.166Q0.0434883 16.7234 0.0869243 16.2824Q0.13036 15.8414 0.195383 15.403Q0.260406 14.9647 0.34686 14.5301Q0.433313 14.0954 0.540989 13.6656Q0.648665 13.2357 0.777304 12.8116Q0.905942 12.3876 1.05523 11.9703Q1.20453 11.5531 1.37411 11.1437Q1.54369 10.7343 1.73316 10.3337Q1.92263 9.93305 2.13153 9.54223Q2.34043 9.15141 2.56825 8.77131Q2.79608 8.39121 3.04227 8.02275Q3.28847 7.65429 3.55245 7.29835Q3.81644 6.94241 4.09757 6.59985Q4.3787 6.2573 4.67629 5.92895Q4.97389 5.6006 5.28725 5.28725Q5.6006 4.97389 5.92895 4.67629Q6.2573 4.3787 6.59985 4.09757Q6.94241 3.81644 7.29835 3.55246Q7.65429 3.28847 8.02275 3.04227Q8.39121 2.79608 8.77131 2.56825Q9.15141 2.34043 9.54223 2.13153Q9.93305 1.92263 10.3337 1.73316Q10.7343 1.54369 11.1437 1.37411Q11.5531 1.20453 11.9703 1.05523Q12.3876 0.905942 12.8116 0.777304Q13.2357 0.648665 13.6656 0.540989Q14.0954 0.433313 14.5301 0.34686Q14.9647 0.260406 15.403 0.195383Q15.8414 0.13036 16.2824 0.0869243Q16.7234 0.0434883 17.166 0.0217442Q17.6086 0 18.0518 0Z" id="Rectangle-2" fill="#48DA99" fill-rule="evenodd" stroke="none" />
    </g>
    <path d="M18.0518 0L18.0538 0Q18.4969 0 18.9395 0.0217442Q19.3822 0.0434883 19.8232 0.0869243Q20.2642 0.13036 20.7025 0.195383Q21.1409 0.260406 21.5755 0.34686Q22.0101 0.433314 22.44 0.540989Q22.8699 0.648665 23.2939 0.777304Q23.718 0.905943 24.1352 1.05523Q24.5525 1.20453 24.9619 1.37411Q25.3713 1.5437 25.7719 1.73317Q26.1725 1.92263 26.5633 2.13153Q26.9542 2.34043 27.3343 2.56825Q27.7144 2.79608 28.0828 3.04227Q28.4513 3.28847 28.8072 3.55246Q29.1632 3.81644 29.5057 4.09757Q29.8483 4.3787 30.1766 4.6763Q30.505 4.97389 30.8183 5.28725Q31.1317 5.6006 31.4293 5.92895Q31.7269 6.2573 32.008 6.59986Q32.2891 6.94241 32.5531 7.29835Q32.8171 7.65429 33.0633 8.02275Q33.3095 8.39121 33.5373 8.77131Q33.7651 9.15141 33.974 9.54223Q34.1829 9.93305 34.3724 10.3337Q34.5619 10.7343 34.7315 11.1437Q34.901 11.5531 35.0503 11.9703Q35.1996 12.3876 35.3283 12.8116Q35.4569 13.2357 35.5646 13.6656Q35.6723 14.0954 35.7587 14.5301Q35.8452 14.9647 35.9102 15.403Q35.9752 15.8414 36.0187 16.2824Q36.0621 16.7234 36.0838 17.166Q36.1056 17.6086 36.1056 18.0518L36.1056 258.256Q36.1056 258.699 36.0838 259.142Q36.0621 259.584 36.0187 260.025Q35.9752 260.466 35.9102 260.905Q35.8452 261.343 35.7587 261.778Q35.6723 262.212 35.5646 262.642Q35.4569 263.072 35.3283 263.496Q35.1996 263.92 35.0503 264.338Q34.901 264.755 34.7315 265.164Q34.5619 265.574 34.3724 265.974Q34.1829 266.375 33.974 266.766Q33.7651 267.156 33.5373 267.537Q33.3095 267.917 33.0633 268.285Q32.8171 268.654 32.5531 269.01Q32.2891 269.365 32.008 269.708Q31.7269 270.051 31.4293 270.379Q31.1317 270.707 30.8183 271.021Q30.505 271.334 30.1766 271.632Q29.8483 271.929 29.5057 272.21Q29.1632 272.491 28.8072 272.755Q28.4513 273.019 28.0828 273.266Q27.7144 273.512 27.3343 273.74Q26.9542 273.967 26.5633 274.176Q26.1725 274.385 25.7719 274.575Q25.3713 274.764 24.9619 274.934Q24.5525 275.103 24.1352 275.253Q23.718 275.402 23.2939 275.531Q22.8699 275.659 22.44 275.767Q22.0101 275.875 21.5755 275.961Q21.1409 276.047 20.7025 276.112Q20.2642 276.178 19.8232 276.221Q19.3822 276.264 18.9395 276.286Q18.4969 276.308 18.0538 276.308L18.0518 276.308Q17.6086 276.308 17.166 276.286Q16.7234 276.264 16.2824 276.221Q15.8414 276.178 15.403 276.113Q14.9647 276.047 14.5301 275.961Q14.0954 275.875 13.6656 275.767Q13.2357 275.659 12.8116 275.531Q12.3876 275.402 11.9703 275.253Q11.5531 275.103 11.1437 274.934Q10.7343 274.764 10.3337 274.575Q9.93305 274.385 9.54223 274.176Q9.15141 273.967 8.77131 273.74Q8.39121 273.512 8.02275 273.266Q7.65429 273.019 7.29835 272.755Q6.94241 272.491 6.59986 272.21Q6.2573 271.929 5.92895 271.632Q5.6006 271.334 5.28725 271.021Q4.97389 270.707 4.6763 270.379Q4.3787 270.051 4.09757 269.708Q3.81644 269.365 3.55246 269.009Q3.28847 268.654 3.04227 268.285Q2.79608 267.917 2.56825 267.537Q2.34043 267.156 2.13153 266.766Q1.92263 266.375 1.73316 265.974Q1.5437 265.574 1.37411 265.164Q1.20453 264.755 1.05523 264.338Q0.905943 263.92 0.777304 263.496Q0.648665 263.072 0.540989 262.642Q0.433314 262.212 0.34686 261.778Q0.260406 261.343 0.195383 260.905Q0.13036 260.466 0.0869243 260.025Q0.0434883 259.584 0.0217442 259.142Q0 258.699 0 258.256L0 18.0518Q0 17.6086 0.0217442 17.166Q0.0434883 16.7234 0.0869243 16.2824Q0.13036 15.8414 0.195383 15.403Q0.260406 14.9647 0.34686 14.5301Q0.433314 14.0954 0.540989 13.6656Q0.648665 13.2357 0.777304 12.8116Q0.905943 12.3876 1.05523 11.9703Q1.20453 11.5531 1.37411 11.1437Q1.5437 10.7343 1.73317 10.3337Q1.92263 9.93305 2.13153 9.54223Q2.34043 9.15141 2.56825 8.77131Q2.79608 8.39121 3.04227 8.02275Q3.28847 7.65429 3.55246 7.29835Q3.81644 6.94241 4.09757 6.59986Q4.3787 6.2573 4.6763 5.92895Q4.97389 5.6006 5.28725 5.28725Q5.6006 4.97389 5.92895 4.6763Q6.2573 4.3787 6.59986 4.09757Q6.94241 3.81644 7.29835 3.55246Q7.65429 3.28847 8.02275 3.04227Q8.39121 2.79608 8.77131 2.56825Q9.15141 2.34043 9.54223 2.13153Q9.93305 1.92263 10.3337 1.73316Q10.7343 1.5437 11.1437 1.37411Q11.5531 1.20453 11.9703 1.05523Q12.3876 0.905943 12.8116 0.777304Q13.2357 0.648665 13.6656 0.540989Q14.0954 0.433314 14.5301 0.34686Q14.9647 0.260406 15.403 0.195383Q15.8414 0.13036 16.2824 0.0869243Q16.7234 0.0434883 17.166 0.0217442Q17.6086 0 18.0518 0Z" transform="translate(64.187744 0.0034179688)" id="Rectangle-2-Copy" fill="#48DA99" fill-rule="evenodd" stroke="none" />
    <path d="M18.0518 0L18.0538 0Q18.4969 0 18.9395 0.0217442Q19.3822 0.0434883 19.8232 0.0869243Q20.2642 0.13036 20.7025 0.195383Q21.1409 0.260406 21.5755 0.34686Q22.0101 0.433314 22.44 0.540989Q22.8699 0.648665 23.2939 0.777304Q23.718 0.905943 24.1352 1.05523Q24.5525 1.20453 24.9619 1.37411Q25.3713 1.5437 25.7719 1.73317Q26.1725 1.92263 26.5633 2.13153Q26.9542 2.34043 27.3343 2.56825Q27.7144 2.79608 28.0828 3.04227Q28.4513 3.28847 28.8072 3.55246Q29.1632 3.81644 29.5057 4.09757Q29.8483 4.3787 30.1766 4.6763Q30.505 4.97389 30.8183 5.28725Q31.1317 5.6006 31.4293 5.92895Q31.7269 6.2573 32.008 6.59986Q32.2891 6.94241 32.5531 7.29835Q32.8171 7.65429 33.0633 8.02275Q33.3095 8.39121 33.5373 8.77131Q33.7651 9.15141 33.974 9.54223Q34.1829 9.93305 34.3724 10.3337Q34.5619 10.7343 34.7315 11.1437Q34.901 11.5531 35.0503 11.9703Q35.1996 12.3876 35.3283 12.8116Q35.4569 13.2357 35.5646 13.6656Q35.6723 14.0954 35.7587 14.5301Q35.8452 14.9647 35.9102 15.403Q35.9752 15.8414 36.0187 16.2824Q36.0621 16.7234 36.0838 17.166Q36.1056 17.6086 36.1056 18.0518L36.1056 206.605Q36.1056 207.048 36.0838 207.491Q36.0621 207.933 36.0187 208.374Q35.9752 208.815 35.9102 209.254Q35.8452 209.692 35.7587 210.127Q35.6723 210.561 35.5646 210.991Q35.4569 211.421 35.3283 211.845Q35.1996 212.269 35.0503 212.687Q34.901 213.104 34.7315 213.513Q34.5619 213.923 34.3724 214.323Q34.1829 214.724 33.974 215.115Q33.7651 215.505 33.5373 215.886Q33.3095 216.266 33.0633 216.634Q32.8171 217.003 32.5531 217.359Q32.2891 217.714 32.008 218.057Q31.7269 218.4 31.4293 218.728Q31.1317 219.056 30.8183 219.37Q30.505 219.683 30.1766 219.981Q29.8483 220.278 29.5057 220.559Q29.1632 220.84 28.8072 221.104Q28.4513 221.368 28.0828 221.615Q27.7144 221.861 27.3343 222.089Q26.9542 222.316 26.5633 222.525Q26.1725 222.734 25.7719 222.924Q25.3713 223.113 24.9619 223.283Q24.5525 223.452 24.1352 223.602Q23.718 223.751 23.2939 223.88Q22.8699 224.008 22.44 224.116Q22.0101 224.224 21.5755 224.31Q21.1409 224.396 20.7025 224.461Q20.2642 224.526 19.8232 224.57Q19.3822 224.613 18.9395 224.635Q18.4969 224.657 18.0538 224.657L18.0518 224.657Q17.6086 224.657 17.166 224.635Q16.7234 224.613 16.2824 224.57Q15.8414 224.526 15.403 224.461Q14.9647 224.396 14.5301 224.31Q14.0954 224.224 13.6656 224.116Q13.2357 224.008 12.8116 223.88Q12.3876 223.751 11.9703 223.602Q11.5531 223.452 11.1437 223.283Q10.7343 223.113 10.3337 222.924Q9.93305 222.734 9.54223 222.525Q9.15141 222.316 8.77131 222.089Q8.39121 221.861 8.02275 221.615Q7.65429 221.368 7.29835 221.104Q6.94241 220.84 6.59986 220.559Q6.2573 220.278 5.92895 219.981Q5.6006 219.683 5.28725 219.37Q4.97389 219.056 4.6763 218.728Q4.3787 218.4 4.09757 218.057Q3.81644 217.714 3.55246 217.358Q3.28847 217.003 3.04227 216.634Q2.79608 216.266 2.56825 215.886Q2.34043 215.505 2.13153 215.115Q1.92263 214.724 1.73316 214.323Q1.5437 213.923 1.37411 213.513Q1.20453 213.104 1.05523 212.687Q0.905943 212.269 0.777304 211.845Q0.648665 211.421 0.540989 210.991Q0.433314 210.561 0.34686 210.127Q0.260406 209.692 0.195383 209.254Q0.13036 208.815 0.0869243 208.374Q0.0434883 207.933 0.0217442 207.491Q0 207.048 0 206.605L0 18.0518Q0 17.6086 0.0217442 17.166Q0.0434883 16.7234 0.0869243 16.2824Q0.13036 15.8414 0.195383 15.403Q0.260406 14.9647 0.34686 14.5301Q0.433314 14.0954 0.540989 13.6656Q0.648665 13.2357 0.777304 12.8116Q0.905943 12.3876 1.05523 11.9703Q1.20453 11.5531 1.37411 11.1437Q1.5437 10.7343 1.73317 10.3337Q1.92263 9.93305 2.13153 9.54223Q2.34043 9.15141 2.56825 8.77131Q2.79608 8.39121 3.04227 8.02275Q3.28847 7.65429 3.55246 7.29835Q3.81644 6.94241 4.09757 6.59986Q4.3787 6.2573 4.6763 5.92895Q4.97389 5.6006 5.28725 5.28725Q5.6006 4.97389 5.92895 4.6763Q6.2573 4.3787 6.59986 4.09757Q6.94241 3.81644 7.29835 3.55246Q7.65429 3.28847 8.02275 3.04227Q8.39121 2.79608 8.77131 2.56825Q9.15141 2.34043 9.54223 2.13153Q9.93305 1.92263 10.3337 1.73316Q10.7343 1.5437 11.1437 1.37411Q11.5531 1.20453 11.9703 1.05523Q12.3876 0.905943 12.8116 0.777304Q13.2357 0.648665 13.6656 0.540989Q14.0954 0.433314 14.5301 0.34686Q14.9647 0.260406 15.403 0.195383Q15.8414 0.13036 16.2824 0.0869243Q16.7234 0.0434883 17.166 0.0217442Q17.6086 0 18.0518 0Z" transform="translate(134.89441 0)" id="Rectangle-2-Copy-2" fill="#48DA99" fill-rule="evenodd" stroke="none" />
  </g>
  <g id="Group-2-Copy-3" transform="matrix(1.1483816E-06 -1 1 1.1483816E-06 408.39893 1452)">
    <g id="Group" transform="translate(0 0.00012207031)">
      <path d="M18.0518 0L18.0538 0Q18.4969 0 18.9395 0.0217442Q19.3822 0.0434883 19.8232 0.0869243Q20.2642 0.13036 20.7025 0.195383Q21.1409 0.260406 21.5755 0.34686Q22.0101 0.433313 22.44 0.540989Q22.8699 0.648665 23.2939 0.777304Q23.718 0.905942 24.1352 1.05523Q24.5525 1.20453 24.9619 1.37411Q25.3713 1.54369 25.7719 1.73316Q26.1725 1.92263 26.5633 2.13153Q26.9542 2.34043 27.3343 2.56825Q27.7144 2.79608 28.0828 3.04227Q28.4513 3.28847 28.8072 3.55245Q29.1632 3.81644 29.5057 4.09757Q29.8483 4.3787 30.1766 4.67629Q30.505 4.97389 30.8183 5.28725Q31.1317 5.6006 31.4293 5.92895Q31.7269 6.2573 32.008 6.59985Q32.2891 6.94241 32.5531 7.29835Q32.8171 7.65429 33.0633 8.02275Q33.3095 8.39121 33.5373 8.77131Q33.7651 9.15141 33.974 9.54223Q34.1829 9.93305 34.3724 10.3337Q34.5619 10.7343 34.7315 11.1437Q34.901 11.5531 35.0503 11.9703Q35.1996 12.3876 35.3283 12.8116Q35.4569 13.2357 35.5646 13.6656Q35.6723 14.0954 35.7587 14.5301Q35.8452 14.9647 35.9102 15.403Q35.9752 15.8414 36.0187 16.2824Q36.0621 16.7234 36.0838 17.166Q36.1056 17.6086 36.1056 18.0518L36.1056 392.148Q36.1056 392.591 36.0838 393.033Q36.0621 393.476 36.0187 393.917Q35.9752 394.358 35.9102 394.796Q35.8452 395.235 35.7587 395.669Q35.6723 396.104 35.5646 396.534Q35.4569 396.964 35.3283 397.388Q35.1996 397.812 35.0503 398.229Q34.901 398.646 34.7315 399.056Q34.5619 399.465 34.3724 399.866Q34.1829 400.266 33.974 400.657Q33.7651 401.048 33.5373 401.428Q33.3095 401.808 33.0633 402.177Q32.8171 402.545 32.5531 402.901Q32.2891 403.257 32.008 403.599Q31.7269 403.942 31.4293 404.27Q31.1317 404.599 30.8183 404.912Q30.505 405.225 30.1766 405.523Q29.8483 405.821 29.5057 406.102Q29.1632 406.383 28.8072 406.647Q28.4513 406.911 28.0828 407.157Q27.7144 407.403 27.3343 407.631Q26.9542 407.859 26.5633 408.068Q26.1725 408.277 25.7719 408.466Q25.3713 408.656 24.9619 408.825Q24.5525 408.995 24.1352 409.144Q23.718 409.293 23.2939 409.422Q22.8699 409.551 22.44 409.658Q22.0101 409.766 21.5755 409.852Q21.1409 409.939 20.7025 410.004Q20.2642 410.069 19.8232 410.112Q19.3822 410.156 18.9395 410.178Q18.4969 410.199 18.0538 410.199L18.0518 410.199Q17.6086 410.199 17.166 410.178Q16.7234 410.156 16.2824 410.112Q15.8414 410.069 15.403 410.004Q14.9647 409.939 14.5301 409.852Q14.0954 409.766 13.6656 409.658Q13.2357 409.551 12.8116 409.422Q12.3876 409.293 11.9703 409.144Q11.5531 408.995 11.1437 408.825Q10.7343 408.656 10.3337 408.466Q9.93305 408.277 9.54223 408.068Q9.15141 407.859 8.77131 407.631Q8.39121 407.403 8.02275 407.157Q7.65429 406.911 7.29835 406.647Q6.94241 406.383 6.59985 406.102Q6.2573 405.821 5.92895 405.523Q5.6006 405.225 5.28725 404.912Q4.97389 404.599 4.67629 404.27Q4.3787 403.942 4.09757 403.599Q3.81644 403.257 3.55246 402.901Q3.28847 402.545 3.04227 402.177Q2.79608 401.808 2.56825 401.428Q2.34043 401.048 2.13153 400.657Q1.92263 400.266 1.73316 399.866Q1.54369 399.465 1.37411 399.056Q1.20453 398.646 1.05523 398.229Q0.905942 397.812 0.777304 397.388Q0.648665 396.964 0.540989 396.534Q0.433313 396.104 0.34686 395.669Q0.260406 395.235 0.195383 394.796Q0.13036 394.358 0.0869243 393.917Q0.0434883 393.476 0.0217442 393.033Q0 392.591 0 392.148L0 18.0518Q0 17.6086 0.0217442 17.166Q0.0434883 16.7234 0.0869243 16.2824Q0.13036 15.8414 0.195383 15.403Q0.260406 14.9647 0.34686 14.5301Q0.433313 14.0954 0.540989 13.6656Q0.648665 13.2357 0.777304 12.8116Q0.905942 12.3876 1.05523 11.9703Q1.20453 11.5531 1.37411 11.1437Q1.54369 10.7343 1.73316 10.3337Q1.92263 9.93305 2.13153 9.54223Q2.34043 9.15141 2.56825 8.77131Q2.79608 8.39121 3.04227 8.02275Q3.28847 7.65429 3.55245 7.29835Q3.81644 6.94241 4.09757 6.59985Q4.3787 6.2573 4.67629 5.92895Q4.97389 5.6006 5.28725 5.28725Q5.6006 4.97389 5.92895 4.67629Q6.2573 4.3787 6.59985 4.09757Q6.94241 3.81644 7.29835 3.55246Q7.65429 3.28847 8.02275 3.04227Q8.39121 2.79608 8.77131 2.56825Q9.15141 2.34043 9.54223 2.13153Q9.93305 1.92263 10.3337 1.73316Q10.7343 1.54369 11.1437 1.37411Q11.5531 1.20453 11.9703 1.05523Q12.3876 0.905942 12.8116 0.777304Q13.2357 0.648665 13.6656 0.540989Q14.0954 0.433313 14.5301 0.34686Q14.9647 0.260406 15.403 0.195383Q15.8414 0.13036 16.2824 0.0869243Q16.7234 0.0434883 17.166 0.0217442Q17.6086 0 18.0518 0Z" id="Rectangle-2" fill="#48DA99" fill-rule="evenodd" stroke="none" />
    </g>
    <path d="M18.0518 0L18.0538 0Q18.4969 0 18.9395 0.0217442Q19.3822 0.0434883 19.8232 0.0869243Q20.2642 0.13036 20.7025 0.195383Q21.1409 0.260406 21.5755 0.34686Q22.0101 0.433314 22.44 0.540989Q22.8699 0.648665 23.2939 0.777304Q23.718 0.905943 24.1352 1.05523Q24.5525 1.20453 24.9619 1.37411Q25.3713 1.5437 25.7719 1.73317Q26.1725 1.92263 26.5633 2.13153Q26.9542 2.34043 27.3343 2.56825Q27.7144 2.79608 28.0828 3.04227Q28.4513 3.28847 28.8072 3.55246Q29.1632 3.81644 29.5057 4.09757Q29.8483 4.3787 30.1766 4.6763Q30.505 4.97389 30.8183 5.28725Q31.1317 5.6006 31.4293 5.92895Q31.7269 6.2573 32.008 6.59986Q32.2891 6.94241 32.5531 7.29835Q32.8171 7.65429 33.0633 8.02275Q33.3095 8.39121 33.5373 8.77131Q33.7651 9.15141 33.974 9.54223Q34.1829 9.93305 34.3724 10.3337Q34.5619 10.7343 34.7315 11.1437Q34.901 11.5531 35.0503 11.9703Q35.1996 12.3876 35.3283 12.8116Q35.4569 13.2357 35.5646 13.6656Q35.6723 14.0954 35.7587 14.5301Q35.8452 14.9647 35.9102 15.403Q35.9752 15.8414 36.0187 16.2824Q36.0621 16.7234 36.0838 17.166Q36.1056 17.6086 36.1056 18.0518L36.1056 258.256Q36.1056 258.699 36.0838 259.142Q36.0621 259.584 36.0187 260.025Q35.9752 260.466 35.9102 260.905Q35.8452 261.343 35.7587 261.778Q35.6723 262.212 35.5646 262.642Q35.4569 263.072 35.3283 263.496Q35.1996 263.92 35.0503 264.338Q34.901 264.755 34.7315 265.164Q34.5619 265.574 34.3724 265.974Q34.1829 266.375 33.974 266.766Q33.7651 267.156 33.5373 267.537Q33.3095 267.917 33.0633 268.285Q32.8171 268.654 32.5531 269.01Q32.2891 269.365 32.008 269.708Q31.7269 270.051 31.4293 270.379Q31.1317 270.707 30.8183 271.021Q30.505 271.334 30.1766 271.632Q29.8483 271.929 29.5057 272.21Q29.1632 272.491 28.8072 272.755Q28.4513 273.019 28.0828 273.266Q27.7144 273.512 27.3343 273.74Q26.9542 273.967 26.5633 274.176Q26.1725 274.385 25.7719 274.575Q25.3713 274.764 24.9619 274.934Q24.5525 275.103 24.1352 275.253Q23.718 275.402 23.2939 275.531Q22.8699 275.659 22.44 275.767Q22.0101 275.875 21.5755 275.961Q21.1409 276.047 20.7025 276.112Q20.2642 276.178 19.8232 276.221Q19.3822 276.264 18.9395 276.286Q18.4969 276.308 18.0538 276.308L18.0518 276.308Q17.6086 276.308 17.166 276.286Q16.7234 276.264 16.2824 276.221Q15.8414 276.178 15.403 276.113Q14.9647 276.047 14.5301 275.961Q14.0954 275.875 13.6656 275.767Q13.2357 275.659 12.8116 275.531Q12.3876 275.402 11.9703 275.253Q11.5531 275.103 11.1437 274.934Q10.7343 274.764 10.3337 274.575Q9.93305 274.385 9.54223 274.176Q9.15141 273.967 8.77131 273.74Q8.39121 273.512 8.02275 273.266Q7.65429 273.019 7.29835 272.755Q6.94241 272.491 6.59986 272.21Q6.2573 271.929 5.92895 271.632Q5.6006 271.334 5.28725 271.021Q4.97389 270.707 4.6763 270.379Q4.3787 270.051 4.09757 269.708Q3.81644 269.365 3.55246 269.009Q3.28847 268.654 3.04227 268.285Q2.79608 267.917 2.56825 267.537Q2.34043 267.156 2.13153 266.766Q1.92263 266.375 1.73316 265.974Q1.5437 265.574 1.37411 265.164Q1.20453 264.755 1.05523 264.338Q0.905943 263.92 0.777304 263.496Q0.648665 263.072 0.540989 262.642Q0.433314 262.212 0.34686 261.778Q0.260406 261.343 0.195383 260.905Q0.13036 260.466 0.0869243 260.025Q0.0434883 259.584 0.0217442 259.142Q0 258.699 0 258.256L0 18.0518Q0 17.6086 0.0217442 17.166Q0.0434883 16.7234 0.0869243 16.2824Q0.13036 15.8414 0.195383 15.403Q0.260406 14.9647 0.34686 14.5301Q0.433314 14.0954 0.540989 13.6656Q0.648665 13.2357 0.777304 12.8116Q0.905943 12.3876 1.05523 11.9703Q1.20453 11.5531 1.37411 11.1437Q1.5437 10.7343 1.73317 10.3337Q1.92263 9.93305 2.13153 9.54223Q2.34043 9.15141 2.56825 8.77131Q2.79608 8.39121 3.04227 8.02275Q3.28847 7.65429 3.55246 7.29835Q3.81644 6.94241 4.09757 6.59986Q4.3787 6.2573 4.6763 5.92895Q4.97389 5.6006 5.28725 5.28725Q5.6006 4.97389 5.92895 4.6763Q6.2573 4.3787 6.59986 4.09757Q6.94241 3.81644 7.29835 3.55246Q7.65429 3.28847 8.02275 3.04227Q8.39121 2.79608 8.77131 2.56825Q9.15141 2.34043 9.54223 2.13153Q9.93305 1.92263 10.3337 1.73316Q10.7343 1.5437 11.1437 1.37411Q11.5531 1.20453 11.9703 1.05523Q12.3876 0.905943 12.8116 0.777304Q13.2357 0.648665 13.6656 0.540989Q14.0954 0.433314 14.5301 0.34686Q14.9647 0.260406 15.403 0.195383Q15.8414 0.13036 16.2824 0.0869243Q16.7234 0.0434883 17.166 0.0217442Q17.6086 0 18.0518 0Z" transform="translate(64.187744 0.0032348633)" id="Rectangle-2-Copy" fill="#48DA99" fill-rule="evenodd" stroke="none" />
    <path d="M18.0518 0L18.0538 0Q18.4969 0 18.9395 0.0217442Q19.3822 0.0434883 19.8232 0.0869243Q20.2642 0.13036 20.7025 0.195383Q21.1409 0.260406 21.5755 0.34686Q22.0101 0.433314 22.44 0.540989Q22.8699 0.648665 23.2939 0.777304Q23.718 0.905943 24.1352 1.05523Q24.5525 1.20453 24.9619 1.37411Q25.3713 1.5437 25.7719 1.73317Q26.1725 1.92263 26.5633 2.13153Q26.9542 2.34043 27.3343 2.56825Q27.7144 2.79608 28.0828 3.04227Q28.4513 3.28847 28.8072 3.55246Q29.1632 3.81644 29.5057 4.09757Q29.8483 4.3787 30.1766 4.6763Q30.505 4.97389 30.8183 5.28725Q31.1317 5.6006 31.4293 5.92895Q31.7269 6.2573 32.008 6.59986Q32.2891 6.94241 32.5531 7.29835Q32.8171 7.65429 33.0633 8.02275Q33.3095 8.39121 33.5373 8.77131Q33.7651 9.15141 33.974 9.54223Q34.1829 9.93305 34.3724 10.3337Q34.5619 10.7343 34.7315 11.1437Q34.901 11.5531 35.0503 11.9703Q35.1996 12.3876 35.3283 12.8116Q35.4569 13.2357 35.5646 13.6656Q35.6723 14.0954 35.7587 14.5301Q35.8452 14.9647 35.9102 15.403Q35.9752 15.8414 36.0187 16.2824Q36.0621 16.7234 36.0838 17.166Q36.1056 17.6086 36.1056 18.0518L36.1056 206.605Q36.1056 207.048 36.0838 207.491Q36.0621 207.933 36.0187 208.374Q35.9752 208.815 35.9102 209.254Q35.8452 209.692 35.7587 210.127Q35.6723 210.561 35.5646 210.991Q35.4569 211.421 35.3283 211.845Q35.1996 212.269 35.0503 212.687Q34.901 213.104 34.7315 213.513Q34.5619 213.923 34.3724 214.323Q34.1829 214.724 33.974 215.115Q33.7651 215.505 33.5373 215.886Q33.3095 216.266 33.0633 216.634Q32.8171 217.003 32.5531 217.359Q32.2891 217.714 32.008 218.057Q31.7269 218.4 31.4293 218.728Q31.1317 219.056 30.8183 219.37Q30.505 219.683 30.1766 219.981Q29.8483 220.278 29.5057 220.559Q29.1632 220.84 28.8072 221.104Q28.4513 221.368 28.0828 221.615Q27.7144 221.861 27.3343 222.089Q26.9542 222.316 26.5633 222.525Q26.1725 222.734 25.7719 222.924Q25.3713 223.113 24.9619 223.283Q24.5525 223.452 24.1352 223.602Q23.718 223.751 23.2939 223.88Q22.8699 224.008 22.44 224.116Q22.0101 224.224 21.5755 224.31Q21.1409 224.396 20.7025 224.461Q20.2642 224.526 19.8232 224.57Q19.3822 224.613 18.9395 224.635Q18.4969 224.657 18.0538 224.657L18.0518 224.657Q17.6086 224.657 17.166 224.635Q16.7234 224.613 16.2824 224.57Q15.8414 224.526 15.403 224.461Q14.9647 224.396 14.5301 224.31Q14.0954 224.224 13.6656 224.116Q13.2357 224.008 12.8116 223.88Q12.3876 223.751 11.9703 223.602Q11.5531 223.452 11.1437 223.283Q10.7343 223.113 10.3337 222.924Q9.93305 222.734 9.54223 222.525Q9.15141 222.316 8.77131 222.089Q8.39121 221.861 8.02275 221.615Q7.65429 221.368 7.29835 221.104Q6.94241 220.84 6.59986 220.559Q6.2573 220.278 5.92895 219.981Q5.6006 219.683 5.28725 219.37Q4.97389 219.056 4.6763 218.728Q4.3787 218.4 4.09757 218.057Q3.81644 217.714 3.55246 217.358Q3.28847 217.003 3.04227 216.634Q2.79608 216.266 2.56825 215.886Q2.34043 215.505 2.13153 215.115Q1.92263 214.724 1.73316 214.323Q1.5437 213.923 1.37411 213.513Q1.20453 213.104 1.05523 212.687Q0.905943 212.269 0.777304 211.845Q0.648665 211.421 0.540989 210.991Q0.433314 210.561 0.34686 210.127Q0.260406 209.692 0.195383 209.254Q0.13036 208.815 0.0869243 208.374Q0.0434883 207.933 0.0217442 207.491Q0 207.048 0 206.605L0 18.0518Q0 17.6086 0.0217442 17.166Q0.0434883 16.7234 0.0869243 16.2824Q0.13036 15.8414 0.195383 15.403Q0.260406 14.9647 0.34686 14.5301Q0.433314 14.0954 0.540989 13.6656Q0.648665 13.2357 0.777304 12.8116Q0.905943 12.3876 1.05523 11.9703Q1.20453 11.5531 1.37411 11.1437Q1.5437 10.7343 1.73317 10.3337Q1.92263 9.93305 2.13153 9.54223Q2.34043 9.15141 2.56825 8.77131Q2.79608 8.39121 3.04227 8.02275Q3.28847 7.65429 3.55246 7.29835Q3.81644 6.94241 4.09757 6.59986Q4.3787 6.2573 4.6763 5.92895Q4.97389 5.6006 5.28725 5.28725Q5.6006 4.97389 5.92895 4.6763Q6.2573 4.3787 6.59986 4.09757Q6.94241 3.81644 7.29835 3.55246Q7.65429 3.28847 8.02275 3.04227Q8.39121 2.79608 8.77131 2.56825Q9.15141 2.34043 9.54223 2.13153Q9.93305 1.92263 10.3337 1.73316Q10.7343 1.5437 11.1437 1.37411Q11.5531 1.20453 11.9703 1.05523Q12.3876 0.905943 12.8116 0.777304Q13.2357 0.648665 13.6656 0.540989Q14.0954 0.433314 14.5301 0.34686Q14.9647 0.260406 15.403 0.195383Q15.8414 0.13036 16.2824 0.0869243Q16.7234 0.0434883 17.166 0.0217442Q17.6086 0 18.0518 0Z" transform="translate(134.89441 0)" id="Rectangle-2-Copy-2" fill="#48DA99" fill-rule="evenodd" stroke="none" />
  </g>
  <path d="M28.999 0L1996 0Q1996.71 0 1997.42 0.0349306Q1998.13 0.0698611 1998.84 0.139638Q1999.55 0.209415 2000.26 0.31387Q2000.96 0.418326 2001.66 0.557208Q2002.36 0.69609 2003.05 0.869064Q2003.74 1.04204 2004.42 1.24869Q2005.1 1.45534 2005.77 1.69516Q2006.44 1.93499 2007.1 2.20742Q2007.76 2.47984 2008.4 2.78421Q2009.04 3.08858 2009.67 3.42417Q2010.3 3.75975 2010.91 4.12573Q2011.52 4.49171 2012.11 4.88721Q2012.7 5.28271 2013.28 5.70679Q2013.85 6.13085 2014.4 6.58247Q2014.95 7.03409 2015.48 7.51216Q2016 7.99023 2016.51 8.49361Q2017.01 8.99699 2017.49 9.52446Q2017.97 10.0519 2018.42 10.6022Q2018.87 11.1525 2019.29 11.7243Q2019.72 12.2961 2020.11 12.888Q2020.51 13.4799 2020.87 14.0905Q2021.24 14.7011 2021.58 15.329Q2021.91 15.9568 2022.22 16.6003Q2022.52 17.2439 2022.79 17.9016Q2023.06 18.5593 2023.3 19.2295Q2023.54 19.8998 2023.75 20.581Q2023.96 21.2623 2024.13 21.9528Q2024.3 22.6434 2024.44 23.3416Q2024.58 24.0398 2024.69 24.744Q2024.79 25.4481 2024.86 26.1566Q2024.93 26.8651 2024.96 27.5761Q2025 28.2871 2025 28.999L2025 147.001Q2025 147.713 2024.96 148.424Q2024.93 149.135 2024.86 149.843Q2024.79 150.552 2024.69 151.256Q2024.58 151.96 2024.44 152.658Q2024.3 153.357 2024.13 154.047Q2023.96 154.738 2023.75 155.419Q2023.54 156.1 2023.3 156.77Q2023.06 157.441 2022.79 158.098Q2022.52 158.756 2022.22 159.4Q2021.91 160.043 2021.58 160.671Q2021.24 161.299 2020.87 161.909Q2020.51 162.52 2020.11 163.112Q2019.72 163.704 2019.29 164.276Q2018.87 164.847 2018.42 165.398Q2017.97 165.948 2017.49 166.476Q2017.01 167.003 2016.51 167.506Q2016 168.01 2015.48 168.488Q2014.95 168.966 2014.4 169.418Q2013.85 169.869 2013.28 170.293Q2012.7 170.717 2012.11 171.113Q2011.52 171.508 2010.91 171.874Q2010.3 172.24 2009.67 172.576Q2009.04 172.911 2008.4 173.216Q2007.76 173.52 2007.1 173.793Q2006.44 174.065 2005.77 174.305Q2005.1 174.545 2004.42 174.751Q2003.74 174.958 2003.05 175.131Q2002.36 175.304 2001.66 175.443Q2000.96 175.582 2000.26 175.686Q1999.55 175.791 1998.84 175.86Q1998.13 175.93 1997.42 175.965Q1996.71 176 1996 176L28.999 176Q28.2871 176 27.5761 175.965Q26.8651 175.93 26.1566 175.86Q25.4481 175.791 24.744 175.686Q24.0398 175.582 23.3416 175.443Q22.6434 175.304 21.9528 175.131Q21.2623 174.958 20.581 174.751Q19.8998 174.545 19.2295 174.305Q18.5593 174.065 17.9016 173.793Q17.2439 173.52 16.6003 173.216Q15.9568 172.911 15.329 172.576Q14.7011 172.24 14.0905 171.874Q13.4799 171.508 12.888 171.113Q12.2961 170.717 11.7243 170.293Q11.1525 169.869 10.6022 169.418Q10.0519 168.966 9.52446 168.488Q8.99699 168.01 8.49361 167.506Q7.99023 167.003 7.51216 166.476Q7.03409 165.948 6.58247 165.398Q6.13085 164.847 5.70678 164.276Q5.28271 163.704 4.88721 163.112Q4.49171 162.52 4.12573 161.909Q3.75975 161.299 3.42417 160.671Q3.08858 160.043 2.78421 159.4Q2.47984 158.756 2.20742 158.098Q1.93499 157.441 1.69516 156.77Q1.45534 156.1 1.24869 155.419Q1.04204 154.738 0.869064 154.047Q0.69609 153.357 0.557208 152.658Q0.418326 151.96 0.31387 151.256Q0.209415 150.552 0.139638 149.843Q0.0698611 149.135 0.0349306 148.424Q0 147.713 0 147.001L0 28.999Q0 28.2871 0.0349306 27.5761Q0.0698611 26.8651 0.139638 26.1566Q0.209415 25.4481 0.31387 24.744Q0.418326 24.0398 0.557208 23.3416Q0.69609 22.6434 0.869064 21.9528Q1.04204 21.2623 1.24869 20.581Q1.45534 19.8998 1.69516 19.2295Q1.93499 18.5593 2.20742 17.9016Q2.47984 17.2439 2.78421 16.6003Q3.08858 15.9568 3.42417 15.329Q3.75975 14.7011 4.12573 14.0905Q4.49171 13.4799 4.88721 12.888Q5.28271 12.2961 5.70679 11.7243Q6.13085 11.1525 6.58247 10.6022Q7.03409 10.0519 7.51216 9.52446Q7.99023 8.99699 8.49361 8.49361Q8.99699 7.99023 9.52446 7.51216Q10.0519 7.03409 10.6022 6.58247Q11.1525 6.13085 11.7243 5.70678Q12.2961 5.28271 12.888 4.88721Q13.4799 4.49171 14.0905 4.12573Q14.7011 3.75975 15.329 3.42417Q15.9568 3.08858 16.6003 2.78421Q17.2439 2.47984 17.9016 2.20742Q18.5593 1.93499 19.2295 1.69516Q19.8998 1.45534 20.581 1.24869Q21.2623 1.04204 21.9528 0.869064Q22.6434 0.69609 23.3416 0.557208Q24.0398 0.418326 24.744 0.31387Q25.4481 0.209415 26.1566 0.139638Q26.8651 0.0698611 27.5761 0.0349306Q28.2871 0 28.999 0L28.999 0Z" transform="translate(0 4)" id="Rectangle-4" fill="#181818" fill-rule="evenodd" stroke="none" />
  <path d="M56.499 0L56.501 0Q57.888 0 59.2733 0.0680555Q60.6586 0.136111 62.0389 0.272058Q63.4192 0.408005 64.7911 0.611516Q66.1631 0.815027 67.5234 1.08561Q68.8837 1.3562 70.2291 1.6932Q71.5745 2.03021 72.9018 2.43283Q74.229 2.83544 75.5349 3.3027Q76.8408 3.76996 78.1222 4.30073Q79.4036 4.8315 80.6574 5.42451Q81.9112 6.01752 83.1344 6.67133Q84.3576 7.32514 85.5473 8.03819Q86.7369 8.75124 87.8902 9.5218Q89.0434 10.2924 90.1574 11.1186Q91.2714 11.9448 92.3436 12.8247Q93.4157 13.7046 94.4434 14.636Q95.4711 15.5674 96.4518 16.5482Q97.4326 17.5289 98.364 18.5566Q99.2954 19.5843 100.175 20.6564Q101.055 21.7286 101.881 22.8426Q102.708 23.9566 103.478 25.1098Q104.249 26.2631 104.962 27.4527Q105.675 28.6424 106.329 29.8656Q106.982 31.0888 107.575 32.3426Q108.168 33.5964 108.699 34.8778Q109.23 36.1592 109.697 37.4651Q110.165 38.771 110.567 40.0982Q110.97 41.4255 111.307 42.7709Q111.644 44.1163 111.914 45.4766Q112.185 46.8369 112.388 48.2089Q112.592 49.5808 112.728 50.9611Q112.864 52.3414 112.932 53.7267Q113 55.112 113 56.499L113 58.501Q113 59.888 112.932 61.2733Q112.864 62.6586 112.728 64.0389Q112.592 65.4192 112.388 66.7911Q112.185 68.1631 111.914 69.5234Q111.644 70.8837 111.307 72.2291Q110.97 73.5745 110.567 74.9018Q110.165 76.229 109.697 77.5349Q109.23 78.8408 108.699 80.1222Q108.168 81.4036 107.575 82.6574Q106.982 83.9112 106.329 85.1344Q105.675 86.3576 104.962 87.5473Q104.249 88.7369 103.478 89.8901Q102.708 91.0434 101.881 92.1574Q101.055 93.2714 100.175 94.3436Q99.2954 95.4157 98.364 96.4434Q97.4326 97.4711 96.4518 98.4518Q95.4711 99.4326 94.4434 100.364Q93.4157 101.295 92.3436 102.175Q91.2714 103.055 90.1574 103.881Q89.0434 104.708 87.8902 105.478Q86.7369 106.249 85.5473 106.962Q84.3576 107.675 83.1344 108.329Q81.9112 108.982 80.6574 109.575Q79.4036 110.168 78.1222 110.699Q76.8408 111.23 75.5349 111.697Q74.229 112.165 72.9018 112.567Q71.5745 112.97 70.2291 113.307Q68.8837 113.644 67.5234 113.914Q66.1631 114.185 64.7911 114.388Q63.4192 114.592 62.0389 114.728Q60.6586 114.864 59.2733 114.932Q57.888 115 56.501 115L56.499 115Q55.112 115 53.7267 114.932Q52.3414 114.864 50.9611 114.728Q49.5808 114.592 48.2089 114.388Q46.8369 114.185 45.4766 113.914Q44.1163 113.644 42.7709 113.307Q41.4255 112.97 40.0982 112.567Q38.771 112.165 37.4651 111.697Q36.1592 111.23 34.8778 110.699Q33.5964 110.168 32.3426 109.575Q31.0888 108.982 29.8656 108.329Q28.6424 107.675 27.4527 106.962Q26.2631 106.249 25.1098 105.478Q23.9566 104.708 22.8426 103.881Q21.7286 103.055 20.6564 102.175Q19.5843 101.295 18.5566 100.364Q17.5289 99.4326 16.5482 98.4518Q15.5674 97.4711 14.636 96.4434Q13.7046 95.4157 12.8247 94.3436Q11.9448 93.2714 11.1186 92.1574Q10.2924 91.0434 9.5218 89.8901Q8.75124 88.7369 8.03819 87.5473Q7.32514 86.3576 6.67133 85.1344Q6.01752 83.9112 5.42451 82.6574Q4.8315 81.4036 4.30073 80.1222Q3.76996 78.8408 3.3027 77.5349Q2.83544 76.229 2.43283 74.9018Q2.03021 73.5745 1.6932 72.2291Q1.3562 70.8837 1.08561 69.5234Q0.815027 68.1631 0.611516 66.7911Q0.408005 65.4192 0.272058 64.0389Q0.136111 62.6586 0.0680555 61.2733Q0 59.888 0 58.501L0 56.499Q0 55.112 0.0680555 53.7267Q0.136111 52.3414 0.272058 50.9611Q0.408005 49.5808 0.611516 48.2089Q0.815027 46.8369 1.08561 45.4766Q1.3562 44.1163 1.6932 42.7709Q2.03021 41.4255 2.43283 40.0982Q2.83544 38.771 3.3027 37.4651Q3.76996 36.1592 4.30073 34.8778Q4.8315 33.5964 5.42451 32.3426Q6.01752 31.0888 6.67133 29.8656Q7.32514 28.6424 8.03819 27.4527Q8.75124 26.2631 9.5218 25.1098Q10.2924 23.9566 11.1186 22.8426Q11.9448 21.7286 12.8247 20.6564Q13.7046 19.5843 14.636 18.5566Q15.5674 17.5289 16.5482 16.5482Q17.5289 15.5674 18.5566 14.636Q19.5843 13.7046 20.6564 12.8247Q21.7286 11.9448 22.8426 11.1186Q23.9566 10.2924 25.1098 9.5218Q26.2631 8.75124 27.4527 8.03819Q28.6424 7.32514 29.8656 6.67133Q31.0888 6.01752 32.3426 5.42451Q33.5964 4.8315 34.8778 4.30073Q36.1592 3.76996 37.4651 3.3027Q38.771 2.83544 40.0982 2.43283Q41.4255 2.03021 42.7709 1.6932Q44.1163 1.3562 45.4766 1.08561Q46.8369 0.815027 48.2089 0.611516Q49.5808 0.408005 50.9611 0.272058Q52.3414 0.136111 53.7267 0.0680555Q55.112 0 56.499 0L56.499 0Z" transform="translate(65 35)" id="Rectangle-5" fill="#48DA99" fill-rule="evenodd" stroke="none" />
  <path d="M151.999 0L875.001 0Q878.732 0 882.459 0.183089Q886.186 0.366179 889.9 0.731917Q893.613 1.09765 897.304 1.64516Q900.995 2.19266 904.654 2.92062Q908.314 3.64857 911.934 4.55522Q915.553 5.46187 919.124 6.54502Q922.695 7.62818 926.208 8.88524Q929.721 10.1423 933.168 11.5702Q936.616 12.9982 939.989 14.5935Q943.362 16.1889 946.653 17.9478Q949.943 19.7068 953.144 21.6251Q956.344 23.5434 959.447 25.6164Q962.549 27.6895 965.547 29.9123Q968.544 32.135 971.428 34.5022Q974.313 36.8693 977.077 39.3752Q979.842 41.881 982.48 44.5195Q985.119 47.1579 987.625 49.9227Q990.131 52.6875 992.498 55.5718Q994.865 58.4562 997.088 61.4533Q999.31 64.4503 1001.38 67.5529Q1003.46 70.6554 1005.37 73.8559Q1007.29 77.0564 1009.05 80.3472Q1010.81 83.6379 1012.41 87.011Q1014 90.3842 1015.43 93.8315Q1016.86 97.2788 1018.11 100.792Q1019.37 104.305 1020.46 107.876Q1021.54 111.447 1022.44 115.066Q1023.35 118.686 1024.08 122.345Q1024.81 126.005 1025.35 129.696Q1025.9 133.387 1026.27 137.1Q1026.63 140.814 1026.82 144.541Q1027 148.268 1027 151.999L1027 657.001Q1027 660.732 1026.82 664.459Q1026.63 668.186 1026.27 671.9Q1025.9 675.613 1025.35 679.304Q1024.81 682.995 1024.08 686.654Q1023.35 690.314 1022.44 693.934Q1021.54 697.553 1020.46 701.124Q1019.37 704.695 1018.11 708.208Q1016.86 711.721 1015.43 715.168Q1014 718.616 1012.41 721.989Q1010.81 725.362 1009.05 728.653Q1007.29 731.943 1005.37 735.144Q1003.46 738.344 1001.38 741.447Q999.31 744.55 997.088 747.547Q994.865 750.544 992.498 753.428Q990.131 756.313 987.625 759.077Q985.119 761.842 982.48 764.48Q979.842 767.119 977.077 769.625Q974.313 772.131 971.428 774.498Q968.544 776.865 965.547 779.088Q962.549 781.31 959.447 783.383Q956.344 785.456 953.144 787.375Q949.943 789.293 946.653 791.052Q943.362 792.811 939.989 794.406Q936.616 796.002 933.168 797.43Q929.721 798.858 926.208 800.115Q922.695 801.372 919.124 802.455Q915.553 803.538 911.934 804.445Q908.314 805.351 904.654 806.079Q900.995 806.807 897.304 807.355Q893.613 807.902 889.9 808.268Q886.186 808.634 882.459 808.817Q878.732 809 875.001 809L151.999 809Q148.268 809 144.541 808.817Q140.814 808.634 137.1 808.268Q133.387 807.902 129.696 807.355Q126.005 806.807 122.345 806.079Q118.686 805.351 115.066 804.445Q111.447 803.538 107.876 802.455Q104.305 801.372 100.792 800.115Q97.2788 798.858 93.8315 797.43Q90.3842 796.002 87.011 794.406Q83.6379 792.811 80.3472 791.052Q77.0564 789.293 73.8559 787.375Q70.6554 785.456 67.5529 783.383Q64.4503 781.31 61.4533 779.088Q58.4562 776.865 55.5718 774.498Q52.6875 772.131 49.9227 769.625Q47.1579 767.119 44.5195 764.48Q41.881 761.842 39.3752 759.077Q36.8693 756.313 34.5022 753.428Q32.135 750.544 29.9123 747.547Q27.6895 744.55 25.6164 741.447Q23.5434 738.344 21.6251 735.144Q19.7068 731.944 17.9478 728.653Q16.1889 725.362 14.5935 721.989Q12.9982 718.616 11.5702 715.168Q10.1423 711.721 8.88524 708.208Q7.62818 704.695 6.54503 701.124Q5.46187 697.553 4.55522 693.934Q3.64857 690.314 2.92062 686.654Q2.19266 682.995 1.64516 679.304Q1.09765 675.613 0.731917 671.9Q0.366179 668.186 0.183089 664.459Q0 660.732 0 657.001L0 151.999Q0 148.268 0.183089 144.541Q0.366179 140.814 0.731917 137.1Q1.09765 133.387 1.64516 129.696Q2.19266 126.005 2.92062 122.345Q3.64857 118.686 4.55522 115.066Q5.46187 111.447 6.54502 107.876Q7.62818 104.305 8.88524 100.792Q10.1423 97.2788 11.5702 93.8315Q12.9982 90.3842 14.5935 87.011Q16.1889 83.6379 17.9478 80.3472Q19.7068 77.0564 21.6251 73.8559Q23.5434 70.6554 25.6164 67.5529Q27.6895 64.4503 29.9123 61.4533Q32.135 58.4562 34.5022 55.5718Q36.8693 52.6875 39.3752 49.9227Q41.881 47.1579 44.5195 44.5195Q47.1579 41.881 49.9227 39.3752Q52.6875 36.8693 55.5718 34.5022Q58.4562 32.135 61.4533 29.9123Q64.4503 27.6895 67.5529 25.6164Q70.6554 23.5434 73.8559 21.6251Q77.0564 19.7068 80.3472 17.9478Q83.6379 16.1889 87.011 14.5935Q90.3842 12.9982 93.8315 11.5702Q97.2788 10.1423 100.792 8.88524Q104.305 7.62818 107.876 6.54503Q111.447 5.46187 115.066 4.55522Q118.686 3.64857 122.345 2.92062Q126.005 2.19266 129.696 1.64516Q133.387 1.09765 137.1 0.731917Q140.814 0.366179 144.541 0.183089Q148.268 0 151.999 0L151.999 0Z" transform="translate(693 356)" id="Rectangle-6" fill="none" fill-rule="evenodd" stroke="#48DA99" stroke-width="3" filter="url(#filter_2)" />
  <path d="M33.499 0L267.501 0Q268.323 0 269.145 0.040351Q269.966 0.080702 270.784 0.161307Q271.603 0.241912 272.416 0.362576Q273.23 0.48324 274.036 0.643674Q274.843 0.804107 275.641 1.00392Q276.438 1.20374 277.225 1.44246Q278.012 1.68117 278.786 1.95822Q279.561 2.23526 280.32 2.54996Q281.08 2.86466 281.824 3.21626Q282.567 3.56786 283.292 3.95552Q284.018 4.34317 284.723 4.76595Q285.428 5.18872 286.112 5.6456Q286.796 6.10247 287.456 6.59235Q288.117 7.08223 288.753 7.60392Q289.388 8.12562 289.998 8.67788Q290.607 9.23014 291.188 9.81163Q291.77 10.3931 292.322 11.0024Q292.874 11.6118 293.396 12.2475Q293.918 12.8831 294.408 13.5437Q294.897 14.2042 295.354 14.888Q295.811 15.5717 296.234 16.2771Q296.657 16.9824 297.044 17.7077Q297.432 18.4329 297.784 19.1763Q298.135 19.9197 298.45 20.6795Q298.765 21.4392 299.042 22.2135Q299.319 22.9878 299.558 23.7748Q299.796 24.5617 299.996 25.3594Q300.196 26.1571 300.356 26.9637Q300.517 27.7702 300.637 28.5837Q300.758 29.3971 300.839 30.2155Q300.919 31.0339 300.96 31.8553Q301 32.6766 301 33.499L301 33.501Q301 34.3234 300.96 35.1447Q300.919 35.9661 300.839 36.7845Q300.758 37.6029 300.637 38.4163Q300.517 39.2298 300.356 40.0363Q300.196 40.8429 299.996 41.6406Q299.796 42.4383 299.558 43.2252Q299.319 44.0122 299.042 44.7865Q298.765 45.5607 298.45 46.3205Q298.135 47.0803 297.784 47.8237Q297.432 48.5671 297.044 49.2923Q296.657 50.0176 296.234 50.7229Q295.811 51.4283 295.354 52.112Q294.897 52.7958 294.408 53.4563Q293.918 54.1168 293.396 54.7525Q292.874 55.3882 292.322 55.9975Q291.77 56.6069 291.188 57.1884Q290.607 57.7699 289.998 58.3221Q289.388 58.8744 288.753 59.3961Q288.117 59.9178 287.456 60.4076Q286.796 60.8975 286.112 61.3544Q285.428 61.8113 284.723 62.234Q284.018 62.6568 283.292 63.0445Q282.567 63.4321 281.824 63.7837Q281.08 64.1353 280.32 64.45Q279.561 64.7647 278.786 65.0418Q278.012 65.3188 277.225 65.5575Q276.438 65.7963 275.641 65.9961Q274.843 66.1959 274.036 66.3563Q273.23 66.5168 272.416 66.6374Q271.603 66.7581 270.784 66.8387Q269.966 66.9193 269.145 66.9596Q268.323 67 267.501 67L33.499 67Q32.6766 67 31.8553 66.9596Q31.0339 66.9193 30.2155 66.8387Q29.3971 66.7581 28.5837 66.6374Q27.7702 66.5168 26.9637 66.3563Q26.1571 66.1959 25.3594 65.9961Q24.5617 65.7963 23.7748 65.5575Q22.9878 65.3188 22.2135 65.0418Q21.4392 64.7647 20.6795 64.45Q19.9197 64.1353 19.1763 63.7837Q18.4329 63.4321 17.7077 63.0445Q16.9824 62.6568 16.2771 62.234Q15.5717 61.8113 14.888 61.3544Q14.2042 60.8975 13.5437 60.4076Q12.8831 59.9178 12.2475 59.3961Q11.6118 58.8744 11.0024 58.3221Q10.3931 57.7699 9.81163 57.1884Q9.23014 56.6069 8.67788 55.9975Q8.12562 55.3882 7.60392 54.7525Q7.08223 54.1168 6.59235 53.4563Q6.10247 52.7958 5.6456 52.112Q5.18872 51.4283 4.76595 50.7229Q4.34317 50.0176 3.95552 49.2923Q3.56786 48.5671 3.21626 47.8237Q2.86466 47.0803 2.54996 46.3205Q2.23526 45.5607 1.95822 44.7865Q1.68117 44.0122 1.44246 43.2252Q1.20374 42.4383 1.00392 41.6406Q0.804107 40.8429 0.643674 40.0363Q0.48324 39.2298 0.362576 38.4163Q0.241912 37.6029 0.161307 36.7845Q0.080702 35.9661 0.040351 35.1447Q0 34.3234 0 33.501L0 33.499Q0 32.6766 0.040351 31.8553Q0.080702 31.0339 0.161307 30.2155Q0.241912 29.3971 0.362576 28.5837Q0.48324 27.7702 0.643674 26.9637Q0.804107 26.1571 1.00392 25.3594Q1.20374 24.5617 1.44246 23.7748Q1.68117 22.9878 1.95822 22.2135Q2.23526 21.4392 2.54996 20.6795Q2.86466 19.9197 3.21626 19.1763Q3.56786 18.4329 3.95552 17.7077Q4.34317 16.9824 4.76595 16.2771Q5.18872 15.5717 5.6456 14.888Q6.10247 14.2042 6.59235 13.5437Q7.08223 12.8831 7.60392 12.2475Q8.12562 11.6118 8.67788 11.0024Q9.23014 10.3931 9.81163 9.81163Q10.3931 9.23014 11.0024 8.67788Q11.6118 8.12562 12.2475 7.60392Q12.8831 7.08223 13.5437 6.59235Q14.2042 6.10247 14.888 5.6456Q15.5717 5.18872 16.2771 4.76595Q16.9824 4.34317 17.7077 3.95552Q18.4329 3.56786 19.1763 3.21626Q19.9197 2.86466 20.6795 2.54996Q21.4392 2.23526 22.2135 1.95822Q22.9878 1.68117 23.7748 1.44246Q24.5617 1.20374 25.3594 1.00392Q26.1571 0.804107 26.9637 0.643674Q27.7702 0.48324 28.5837 0.362576Q29.3971 0.241912 30.2155 0.161307Q31.0339 0.080702 31.8553 0.040351Q32.6766 0 33.499 0Z" transform="translate(790 59)" id="Rectangle-7" fill="#48DA99" fill-rule="evenodd" stroke="none" />
  <path d="M33.499 0L267.501 0Q268.323 0 269.145 0.040351Q269.966 0.080702 270.784 0.161307Q271.603 0.241912 272.416 0.362576Q273.23 0.48324 274.036 0.643674Q274.843 0.804107 275.641 1.00392Q276.438 1.20374 277.225 1.44246Q278.012 1.68117 278.786 1.95822Q279.561 2.23526 280.32 2.54996Q281.08 2.86466 281.824 3.21626Q282.567 3.56786 283.292 3.95552Q284.018 4.34317 284.723 4.76595Q285.428 5.18872 286.112 5.6456Q286.796 6.10247 287.456 6.59235Q288.117 7.08223 288.753 7.60392Q289.388 8.12562 289.998 8.67788Q290.607 9.23014 291.188 9.81163Q291.77 10.3931 292.322 11.0024Q292.874 11.6118 293.396 12.2475Q293.918 12.8831 294.408 13.5437Q294.897 14.2042 295.354 14.888Q295.811 15.5717 296.234 16.2771Q296.657 16.9824 297.044 17.7077Q297.432 18.4329 297.784 19.1763Q298.135 19.9197 298.45 20.6795Q298.765 21.4392 299.042 22.2135Q299.319 22.9878 299.558 23.7748Q299.796 24.5617 299.996 25.3594Q300.196 26.1571 300.356 26.9637Q300.517 27.7702 300.637 28.5837Q300.758 29.3971 300.839 30.2155Q300.919 31.0339 300.96 31.8553Q301 32.6766 301 33.499L301 33.501Q301 34.3234 300.96 35.1447Q300.919 35.9661 300.839 36.7845Q300.758 37.6029 300.637 38.4163Q300.517 39.2298 300.356 40.0363Q300.196 40.8429 299.996 41.6406Q299.796 42.4383 299.558 43.2252Q299.319 44.0122 299.042 44.7865Q298.765 45.5607 298.45 46.3205Q298.135 47.0803 297.784 47.8237Q297.432 48.5671 297.044 49.2923Q296.657 50.0176 296.234 50.7229Q295.811 51.4283 295.354 52.112Q294.897 52.7958 294.408 53.4563Q293.918 54.1168 293.396 54.7525Q292.874 55.3882 292.322 55.9975Q291.77 56.6069 291.188 57.1884Q290.607 57.7699 289.998 58.3221Q289.388 58.8744 288.753 59.3961Q288.117 59.9178 287.456 60.4076Q286.796 60.8975 286.112 61.3544Q285.428 61.8113 284.723 62.234Q284.018 62.6568 283.292 63.0445Q282.567 63.4321 281.824 63.7837Q281.08 64.1353 280.32 64.45Q279.561 64.7647 278.786 65.0418Q278.012 65.3188 277.225 65.5575Q276.438 65.7963 275.641 65.9961Q274.843 66.1959 274.036 66.3563Q273.23 66.5168 272.416 66.6374Q271.603 66.7581 270.784 66.8387Q269.966 66.9193 269.145 66.9596Q268.323 67 267.501 67L33.499 67Q32.6766 67 31.8553 66.9596Q31.0339 66.9193 30.2155 66.8387Q29.3971 66.7581 28.5837 66.6374Q27.7702 66.5168 26.9637 66.3563Q26.1571 66.1959 25.3594 65.9961Q24.5617 65.7963 23.7748 65.5575Q22.9878 65.3188 22.2135 65.0418Q21.4392 64.7647 20.6795 64.45Q19.9197 64.1353 19.1763 63.7837Q18.4329 63.4321 17.7077 63.0445Q16.9824 62.6568 16.2771 62.234Q15.5717 61.8113 14.888 61.3544Q14.2042 60.8975 13.5437 60.4076Q12.8831 59.9178 12.2475 59.3961Q11.6118 58.8744 11.0024 58.3221Q10.3931 57.7699 9.81163 57.1884Q9.23014 56.6069 8.67788 55.9975Q8.12562 55.3882 7.60392 54.7525Q7.08223 54.1168 6.59235 53.4563Q6.10247 52.7958 5.6456 52.112Q5.18872 51.4283 4.76595 50.7229Q4.34317 50.0176 3.95552 49.2923Q3.56786 48.5671 3.21626 47.8237Q2.86466 47.0803 2.54996 46.3205Q2.23526 45.5607 1.95822 44.7865Q1.68117 44.0122 1.44246 43.2252Q1.20374 42.4383 1.00392 41.6406Q0.804107 40.8429 0.643674 40.0363Q0.48324 39.2298 0.362576 38.4163Q0.241912 37.6029 0.161307 36.7845Q0.080702 35.9661 0.040351 35.1447Q0 34.3234 0 33.501L0 33.499Q0 32.6766 0.040351 31.8553Q0.080702 31.0339 0.161307 30.2155Q0.241912 29.3971 0.362576 28.5837Q0.48324 27.7702 0.643674 26.9637Q0.804107 26.1571 1.00392 25.3594Q1.20374 24.5617 1.44246 23.7748Q1.68117 22.9878 1.95822 22.2135Q2.23526 21.4392 2.54996 20.6795Q2.86466 19.9197 3.21626 19.1763Q3.56786 18.4329 3.95552 17.7077Q4.34317 16.9824 4.76595 16.2771Q5.18872 15.5717 5.6456 14.888Q6.10247 14.2042 6.59235 13.5437Q7.08223 12.8831 7.60392 12.2475Q8.12562 11.6118 8.67788 11.0024Q9.23014 10.3931 9.81163 9.81163Q10.3931 9.23014 11.0024 8.67788Q11.6118 8.12562 12.2475 7.60392Q12.8831 7.08223 13.5437 6.59235Q14.2042 6.10247 14.888 5.6456Q15.5717 5.18872 16.2771 4.76595Q16.9824 4.34317 17.7077 3.95552Q18.4329 3.56786 19.1763 3.21626Q19.9197 2.86466 20.6795 2.54996Q21.4392 2.23526 22.2135 1.95822Q22.9878 1.68117 23.7748 1.44246Q24.5617 1.20374 25.3594 1.00392Q26.1571 0.804107 26.9637 0.643674Q27.7702 0.48324 28.5837 0.362576Q29.3971 0.241912 30.2155 0.161307Q31.0339 0.080702 31.8553 0.040351Q32.6766 0 33.499 0Z" transform="translate(1206 59)" id="Rectangle-7-Copy" fill="#48DA99" fill-rule="evenodd" stroke="none" />
  <path d="M33.499 0L267.501 0Q268.323 0 269.145 0.040351Q269.966 0.080702 270.784 0.161307Q271.603 0.241912 272.416 0.362576Q273.23 0.48324 274.036 0.643674Q274.843 0.804107 275.641 1.00392Q276.438 1.20374 277.225 1.44246Q278.012 1.68117 278.786 1.95822Q279.561 2.23526 280.32 2.54996Q281.08 2.86466 281.824 3.21626Q282.567 3.56786 283.292 3.95552Q284.018 4.34317 284.723 4.76595Q285.428 5.18872 286.112 5.6456Q286.796 6.10247 287.456 6.59235Q288.117 7.08223 288.753 7.60392Q289.388 8.12562 289.998 8.67788Q290.607 9.23014 291.188 9.81163Q291.77 10.3931 292.322 11.0024Q292.874 11.6118 293.396 12.2475Q293.918 12.8831 294.408 13.5437Q294.897 14.2042 295.354 14.888Q295.811 15.5717 296.234 16.2771Q296.657 16.9824 297.044 17.7077Q297.432 18.4329 297.784 19.1763Q298.135 19.9197 298.45 20.6795Q298.765 21.4392 299.042 22.2135Q299.319 22.9878 299.558 23.7748Q299.796 24.5617 299.996 25.3594Q300.196 26.1571 300.356 26.9637Q300.517 27.7702 300.637 28.5837Q300.758 29.3971 300.839 30.2155Q300.919 31.0339 300.96 31.8553Q301 32.6766 301 33.499L301 33.501Q301 34.3234 300.96 35.1447Q300.919 35.9661 300.839 36.7845Q300.758 37.6029 300.637 38.4163Q300.517 39.2298 300.356 40.0363Q300.196 40.8429 299.996 41.6406Q299.796 42.4383 299.558 43.2252Q299.319 44.0122 299.042 44.7865Q298.765 45.5607 298.45 46.3205Q298.135 47.0803 297.784 47.8237Q297.432 48.5671 297.044 49.2923Q296.657 50.0176 296.234 50.7229Q295.811 51.4283 295.354 52.112Q294.897 52.7958 294.408 53.4563Q293.918 54.1168 293.396 54.7525Q292.874 55.3882 292.322 55.9975Q291.77 56.6069 291.188 57.1884Q290.607 57.7699 289.998 58.3221Q289.388 58.8744 288.753 59.3961Q288.117 59.9178 287.456 60.4076Q286.796 60.8975 286.112 61.3544Q285.428 61.8113 284.723 62.234Q284.018 62.6568 283.292 63.0445Q282.567 63.4321 281.824 63.7837Q281.08 64.1353 280.32 64.45Q279.561 64.7647 278.786 65.0418Q278.012 65.3188 277.225 65.5575Q276.438 65.7963 275.641 65.9961Q274.843 66.1959 274.036 66.3563Q273.23 66.5168 272.416 66.6374Q271.603 66.7581 270.784 66.8387Q269.966 66.9193 269.145 66.9596Q268.323 67 267.501 67L33.499 67Q32.6766 67 31.8553 66.9596Q31.0339 66.9193 30.2155 66.8387Q29.3971 66.7581 28.5837 66.6374Q27.7702 66.5168 26.9637 66.3563Q26.1571 66.1959 25.3594 65.9961Q24.5617 65.7963 23.7748 65.5575Q22.9878 65.3188 22.2135 65.0418Q21.4392 64.7647 20.6795 64.45Q19.9197 64.1353 19.1763 63.7837Q18.4329 63.4321 17.7077 63.0445Q16.9824 62.6568 16.2771 62.234Q15.5717 61.8113 14.888 61.3544Q14.2042 60.8975 13.5437 60.4076Q12.8831 59.9178 12.2475 59.3961Q11.6118 58.8744 11.0024 58.3221Q10.3931 57.7699 9.81163 57.1884Q9.23014 56.6069 8.67788 55.9975Q8.12562 55.3882 7.60392 54.7525Q7.08223 54.1168 6.59235 53.4563Q6.10247 52.7958 5.6456 52.112Q5.18872 51.4283 4.76595 50.7229Q4.34317 50.0176 3.95552 49.2923Q3.56786 48.5671 3.21626 47.8237Q2.86466 47.0803 2.54996 46.3205Q2.23526 45.5607 1.95822 44.7865Q1.68117 44.0122 1.44246 43.2252Q1.20374 42.4383 1.00392 41.6406Q0.804107 40.8429 0.643674 40.0363Q0.48324 39.2298 0.362576 38.4163Q0.241912 37.6029 0.161307 36.7845Q0.080702 35.9661 0.040351 35.1447Q0 34.3234 0 33.501L0 33.499Q0 32.6766 0.040351 31.8553Q0.080702 31.0339 0.161307 30.2155Q0.241912 29.3971 0.362576 28.5837Q0.48324 27.7702 0.643674 26.9637Q0.804107 26.1571 1.00392 25.3594Q1.20374 24.5617 1.44246 23.7748Q1.68117 22.9878 1.95822 22.2135Q2.23526 21.4392 2.54996 20.6795Q2.86466 19.9197 3.21626 19.1763Q3.56786 18.4329 3.95552 17.7077Q4.34317 16.9824 4.76595 16.2771Q5.18872 15.5717 5.6456 14.888Q6.10247 14.2042 6.59235 13.5437Q7.08223 12.8831 7.60392 12.2475Q8.12562 11.6118 8.67788 11.0024Q9.23014 10.3931 9.81163 9.81163Q10.3931 9.23014 11.0024 8.67788Q11.6118 8.12562 12.2475 7.60392Q12.8831 7.08223 13.5437 6.59235Q14.2042 6.10247 14.888 5.6456Q15.5717 5.18872 16.2771 4.76595Q16.9824 4.34317 17.7077 3.95552Q18.4329 3.56786 19.1763 3.21626Q19.9197 2.86466 20.6795 2.54996Q21.4392 2.23526 22.2135 1.95822Q22.9878 1.68117 23.7748 1.44246Q24.5617 1.20374 25.3594 1.00392Q26.1571 0.804107 26.9637 0.643674Q27.7702 0.48324 28.5837 0.362576Q29.3971 0.241912 30.2155 0.161307Q31.0339 0.080702 31.8553 0.040351Q32.6766 0 33.499 0Z" transform="translate(1622 59)" id="Rectangle-7-Copy-2" fill="#48DA99" fill-rule="evenodd" stroke="none" />
</svg>